<?xml version="1.0" encoding="UTF-8"?>
<svg version="1.1" xmlns="http://www.w3.org/2000/svg" width="1448" height="1086">
<path d="M0 0 C0.94382255 3.06471117 1.26824613 4.45729012 -0.1796875 7.38671875 C-1.01886719 8.52560547 -1.01886719 8.52560547 -1.875 9.6875 C-2.70644531 10.83798828 -2.70644531 10.83798828 -3.5546875 12.01171875 C-4.27011719 12.99591797 -4.27011719 12.99591797 -5 14 C-7.09909088 18.19818177 -6.54192449 23.43930967 -6 28 C-3.31532783 31.83524595 -0.53454739 33.86636315 4 35 C8.08328215 35.29276363 11.95520153 35.17907423 15.99414062 34.48681641 C20.85009131 33.78387676 25.67618876 33.95215321 30.5703125 34.04296875 C32.62108424 34.0653422 34.67186615 34.08679919 36.72265625 34.10742188 C39.9333868 34.14459565 43.14359516 34.18784165 46.35400391 34.24682617 C49.46785096 34.30128401 52.58110863 34.33039047 55.6953125 34.35546875 C56.65374054 34.37925095 57.61216858 34.40303314 58.59963989 34.42753601 C62.87155804 34.44432818 65.30463248 34.42258506 69.01904297 32.1652832 C73.05143355 27.7576825 73.58519991 24.852622 73.5390625 19.0546875 C72.71635637 14.3926861 70.27291138 11.21608308 67.43359375 7.5078125 C66 5 66 5 66.28515625 2.1796875 C66.52105469 1.46039062 66.75695312 0.74109375 67 0 C75.26582166 0.34440924 80.15625898 4.85630014 85.6875 10.6875 C90.68867643 16.68206079 93.73142227 23.48988623 94.9375 31.1875 C95.87009534 36.64490976 98.34039903 39.94890683 102 44 C102.73863281 44.85851562 102.73863281 44.85851562 103.4921875 45.734375 C116.05094882 59.35532011 134.11720448 66.55045831 151.125 72.8125 C175.67979192 81.88524857 199.00711613 94.00121951 219 111 C219.53882813 111.45375 220.07765625 111.9075 220.6328125 112.375 C229.41899793 119.84537988 238.71524572 128.61285182 242 140 C241.68965517 146.31034483 241.68965517 146.31034483 239 149 C233.79200714 149.54249926 229.6633915 148.48472707 224.72265625 146.8515625 C217.04976225 144.45171904 210.40961639 143.64381984 202.375 143.6875 C200.77930176 143.69487183 200.77930176 143.69487183 199.15136719 143.70239258 C175.23115556 144.05758914 155.56343061 154.12962057 139 171 C136.57395036 173.59465541 134.2786879 176.27593219 132 179 C125.2831631 186.92302944 118.44543248 193.0560006 110 199 C108.66294463 199.99501795 107.32802776 200.99296473 106 202 C106.61746094 202.4125 107.23492187 202.825 107.87109375 203.25 C125.14476656 215.02869927 137.30052381 230.04215541 142.58984375 250.59765625 C143.01881838 253.11022191 143.0770911 255.45599367 143 258 C142.05125 257.175 141.1025 256.35 140.125 255.5 C139.47917969 254.95214844 138.83335937 254.40429688 138.16796875 253.83984375 C136.70112599 252.59500962 135.24560929 251.33672575 133.80078125 250.06640625 C114.39599763 233.6124327 89.65097169 229.14115541 65.125 226.9375 C63.27905985 226.76446226 61.43319421 226.59062797 59.58740234 226.41601562 C51.15917885 225.62430645 42.72844466 224.88321456 34.28955078 224.21411133 C-11.60635197 220.52612281 -45.8121622 208.49162098 -76.625 172.875 C-90.0444151 157.40284332 -108.61418825 146.47036612 -129.34863281 144.71679688 C-132.71766007 144.60038539 -136.06680291 144.58388804 -139.4375 144.625 C-140.6145752 144.63225098 -141.79165039 144.63950195 -143.00439453 144.64697266 C-152.24916399 144.79399914 -160.98822331 145.50927881 -169.62109375 149.0859375 C-172.85506813 150.32854834 -175.57004172 150.25886478 -179 150 C-181.39657149 147.60342851 -181.40030281 146.80672978 -181.5625 143.5 C-181.2117996 132.32540986 -170.67180536 124.04280745 -163.10546875 116.75390625 C-153.16309964 107.47135538 -141.84148243 99.65491923 -130 93 C-129.28344238 92.59458984 -128.56688477 92.18917969 -127.82861328 91.77148438 C-111.2940081 82.5189592 -93.91879601 75.64168128 -76.29296875 68.77734375 C-61.09463846 62.83854173 -48.60270668 56.67065811 -37 45 C-35.91138672 43.99646484 -35.91138672 43.99646484 -34.80078125 42.97265625 C-30.02978329 38.24166665 -29.03835856 33.81486024 -27.7890625 27.3125 C-25.18898789 16.3973353 -17.94440156 8.15672459 -8.8125 2 C-5.78162416 0.2125604 -3.58276174 -0.55980652 0 0 Z " fill="#3ED4ED" transform="translate(309,719)"/>
<path d="M0 0 C0.45109444 4.56015474 -0.78578089 6.60055157 -3.4375 10.25 C-6.6685488 15.11295783 -8.63245506 19.08117527 -8 25 C-6.44446848 28.76602367 -4.43685584 30.8519651 -1 33 C2.14911289 34.0497043 4.41406177 34.14554759 7.72143555 34.17700195 C8.89663254 34.18983719 10.07182953 34.20267242 11.28263855 34.21589661 C12.55448502 34.22328354 13.82633148 34.23067047 15.13671875 34.23828125 C16.44526321 34.246353 17.75380768 34.25442474 19.102005 34.26274109 C21.8752123 34.27775793 24.64839409 34.28759956 27.42163086 34.29516602 C30.95780636 34.30620169 34.4933476 34.34057184 38.02929974 34.38033772 C41.41924615 34.4129266 44.80912787 34.41729364 48.19921875 34.42578125 C49.46094406 34.44328934 50.72266937 34.46079742 52.02262878 34.47883606 C59.12248712 34.46139538 64.06068406 34.04769515 70 30 C72.68663929 25.46799651 72.64038132 21.14619689 72 16 C70.74572952 12.32368996 69.19909223 9.14720843 66.375 6.4453125 C65 5 65 5 64.8125 2.3125 C64.874375 1.549375 64.93625 0.78625 65 0 C70.45618096 -0.83941246 73.49017305 1.09923372 77.76171875 4.171875 C86.17584342 11.04414437 91.13967263 19.46489373 93.375 30.0625 C96.27741817 42.60222934 107.57004388 51.3177255 117.9375 58.0625 C126.22467326 62.96122625 135.07827439 66.43695747 144 70 C170.18673656 80.54125121 195.3070717 91.50574234 217 110 C217.98484375 110.82113281 218.9696875 111.64226562 219.984375 112.48828125 C228.38399749 119.76253995 239.1783578 130.05745876 240.375 141.625 C240 145 240 145 239.0625 147.5 C236.23418589 149.55695572 234.08082193 149.13470728 230.7265625 148.62890625 C228 148 228 148 225.2109375 147.02734375 C216.92614092 144.15952955 209.4877869 143.62070202 200.75 143.625 C199.64922119 143.62363037 198.54844238 143.62226074 197.41430664 143.62084961 C174.95158881 143.92021721 156.00193453 152.33576864 140 168 C139.1440625 168.82886719 138.288125 169.65773438 137.40625 170.51171875 C133.59338316 174.26142063 129.89982347 178.04839333 126.4375 182.125 C120.04976993 189.54252767 112.37853904 195.93169661 104 201 C103.34 201 102.68 201 102 201 C102 201.66 102 202.32 102 203 C103.07894531 203.37898438 103.07894531 203.37898438 104.1796875 203.765625 C119.32889866 210.39602767 130.05615319 227.49015917 136.29736328 242.13427734 C137.86838 246.30582347 138.62485874 250.57333314 139 255 C136.14102177 253.14552764 133.35320977 251.27003267 130.64453125 249.19921875 C103.9624464 228.90191639 68.38892108 225.32185045 35.8125 223.5 C-10.2759341 220.82096787 -44.94610483 205.24432723 -76.21777344 171.1015625 C-89.79084305 156.37729805 -107.96544465 145.02156897 -128.56445312 143.85473633 C-148.73723439 143.58803802 -148.73723439 143.58803802 -168.375 147.6875 C-172.71931704 149.09072149 -175.59154804 149.21935905 -180 148 C-181.64788275 144.7042345 -181.62304578 141.54891761 -181 138 C-177.57919668 130.72752882 -171.49360454 124.74850779 -166 119 C-165.48856445 118.45867432 -164.97712891 117.91734863 -164.45019531 117.35961914 C-160.17703402 112.94202841 -155.62839621 109.24654338 -150.625 105.6875 C-149.83536865 105.12482422 -149.0457373 104.56214844 -148.23217773 103.98242188 C-136.16565909 95.49745496 -123.57097715 88.64253629 -110.3125 82.1875 C-108.6564978 81.37829102 -108.6564978 81.37829102 -106.96704102 80.55273438 C-100.23046951 77.33461105 -93.44718484 74.63101672 -86.39477539 72.1862793 C-66.23209013 65.1405772 -43.74847521 56.40413344 -31.5625 37.625 C-30.17390576 34.40346136 -29.39188313 31.58864835 -28.625 28.1875 C-26.00978364 16.93925758 -19.38916389 8.50763462 -9.9375 2.0625 C-6.53535918 0.03315284 -4.00808001 -0.50101 0 0 Z " fill="#43D5EE" transform="translate(258,221)"/>
<path d="M0 0 C5.56155832 1.34825656 8.96982674 5.36748381 12 10 C12.67865709 12.2777916 13.05175952 14.4979464 13.44140625 16.83984375 C15.09454082 23.23273477 21.47457358 27.64906637 26.6953125 31.171875 C33.30786845 34.82988468 40.42306674 37.37316872 47.47827148 40.04345703 C50.10587057 41.04015886 52.72987661 42.04416366 55.34765625 43.06640625 C56.13406494 43.3713501 56.92047363 43.67629395 57.73071289 43.99047852 C61.83060189 45.81436674 65.3762914 48.37987239 69 51 C69.91136719 51.64453125 70.82273437 52.2890625 71.76171875 52.953125 C88.43683652 64.87367304 88.43683652 64.87367304 92 72 C92.375 75.375 92.375 75.375 92 78 C91.67 78.33 91.34 78.66 91 79 C89.1796875 78.9140625 89.1796875 78.9140625 86.875 78.625 C86.05257812 78.52574219 85.23015625 78.42648437 84.3828125 78.32421875 C82.49944039 78.06795664 80.6228817 77.7616526 78.75 77.4375 C69.36248693 76.34229014 60.83878213 76.47057237 52 80 C51.30261719 80.2784375 50.60523438 80.556875 49.88671875 80.84375 C41.9206016 84.43236976 36.3089975 90.51769858 30.73046875 97.06640625 C28.11009286 99.99436577 25.30006944 102.84351898 22 105 C21.01 105 20.02 105 19 105 C19 105.66 19 106.32 19 107 C19.70125 107.226875 20.4025 107.45375 21.125 107.6875 C30.07919284 111.77528369 34.85607684 120.16835379 38.9375 128.8125 C40.02781534 132.08344601 40.25042728 134.57749382 40 138 C39.52691406 137.63648438 39.05382812 137.27296875 38.56640625 136.8984375 C37.15793746 135.82767175 35.74039548 134.76878728 34.31640625 133.71875 C32.86570341 132.64234317 31.43248331 131.54149147 30.02734375 130.40625 C23.60915607 125.5586015 16.70668734 124.06900325 8.9831543 122.44189453 C6.97343219 121.99408005 5.00128252 121.45779204 3.015625 120.9140625 C-1.03612337 119.88942583 -5.02471593 119.71714927 -9.1875 119.625 C-30.56638208 118.76966417 -52.43857626 114.45225543 -67.5859375 98.2890625 C-68.79140687 96.96804042 -69.9919171 95.64247642 -71.1875 94.3125 C-81.08568968 83.34234311 -91.49982331 78.0165902 -106.53515625 76.6875 C-112.28576718 76.57988623 -117.56083855 77.10062445 -123.12109375 78.5546875 C-125.44410011 79.10525449 -127.62327654 79.153337 -130 79 C-131.21888747 75.64805947 -131.06592324 74.16810425 -129.75 70.8125 C-118.57301855 53.36734652 -94.45474895 42.82251725 -75.5625 36.375 C-66.33597884 33.21827979 -56.55116755 28.32675132 -51 20 C-50.71125 18.741875 -50.4225 17.48375 -50.125 16.1875 C-48.50230783 9.37219287 -44.64293047 4.91550277 -39 1 C-36.125 0.6875 -36.125 0.6875 -34 1 C-35.12451727 3.9719385 -36.22293791 6.33440687 -38 9 C-38.21314985 12.4103976 -38.084894 14.74531799 -37 18 C-31.927993 18.04942365 -26.85612606 18.08573068 -21.78393555 18.10986328 C-20.05832477 18.11992326 -18.33273105 18.13357276 -16.60717773 18.15087891 C-14.1273986 18.17512754 -11.64784477 18.18648301 -9.16796875 18.1953125 C-8.39599655 18.20563507 -7.62402435 18.21595764 -6.82865906 18.22659302 C-3.00718524 18.22739422 -1.25863893 18.17242595 2 16 C2.80272009 11.9234411 2.73354414 8.11498709 0.4375 4.625 C-0.036875 4.08875 -0.51125 3.5525 -1 3 C-0.67 2.01 -0.34 1.02 0 0 Z " fill="#F3F7FA" transform="translate(878,771)"/>
<path d="M0 0 C23 0 23 0 28.125 4.375 C29.08807631 5.94856193 30.0469576 7.52644059 30.92871094 9.14697266 C32.59256735 12.02497406 34.59546665 14.63399209 36.57446289 17.30102539 C38.26417427 19.58163104 39.91917246 21.88387543 41.56640625 24.1953125 C45.63794459 29.89992108 49.75163635 35.57380666 53.86230469 41.25024414 C54.37567383 41.96043701 54.88904297 42.67062988 55.41796875 43.40234375 C55.86938232 44.02616943 56.3207959 44.64999512 56.78588867 45.29272461 C57.88699554 46.84109387 58.94608661 48.41912991 60 50 C63.36852203 48.87715932 63.83085237 48.23693741 65.828125 45.44921875 C66.37331787 44.69753418 66.91851074 43.94584961 67.48022461 43.17138672 C68.06425049 42.3517041 68.64827637 41.53202148 69.25 40.6875 C70.50562538 38.95378576 71.76216712 37.22073489 73.01953125 35.48828125 C73.99720459 34.13597412 73.99720459 34.13597412 74.99462891 32.75634766 C78.26421534 28.26235802 81.59920579 23.81806253 84.9375 19.375 C85.84000488 18.16976685 85.84000488 18.16976685 86.76074219 16.94018555 C97.88658892 2.11341108 97.88658892 2.11341108 100 0 C107.59 0 115.18 0 123 0 C123 39.6 123 79.2 123 120 C115.08 120 107.16 120 99 120 C98.67 94.92 98.34 69.84 98 44 C89.78313735 53.82081442 89.78313735 53.82081442 82 63.9375 C80.99157012 65.29608142 79.98244372 66.65414608 78.97265625 68.01171875 C78.47910645 68.67606934 77.98555664 69.34041992 77.47705078 70.02490234 C74.38369117 74.16131214 71.21702681 78.24135119 68.05859375 82.328125 C66.35472373 84.53959956 64.66817292 86.76155711 63 89 C60.76953125 88.859375 60.76953125 88.859375 58 88 C55.88671875 85.578125 55.88671875 85.578125 53.6875 82.25 C52.82279954 80.975286 51.95402453 79.7033301 51.08203125 78.43359375 C50.60072754 77.73089355 50.11942383 77.02819336 49.62353516 76.30419922 C46.5039571 71.87674393 43.17647453 67.6049924 39.875 63.3125 C34.46939467 56.28368737 29.21812654 49.17492399 24 42 C23.67 67.74 23.34 93.48 23 120 C15.41 120 7.82 120 0 120 C0 80.4 0 40.8 0 0 Z " fill="#24CBE8" transform="translate(916,289)"/>
<path d="M0 0 C7.08334707 5.59881326 12.08612564 11.83091899 15.875 20.0625 C15.875 20.7225 15.875 21.3825 15.875 22.0625 C12.94157102 23.40492421 10.00263748 24.73484067 7.0625 26.0625 C6.22912109 26.4440625 5.39574219 26.825625 4.53710938 27.21875 C3.73466797 27.5796875 2.93222656 27.940625 2.10546875 28.3125 C1.36707764 28.64765625 0.62868652 28.9828125 -0.13208008 29.328125 C-2.125 30.0625 -2.125 30.0625 -5.125 30.0625 C-6.4140625 28.0859375 -6.4140625 28.0859375 -7.75 25.4375 C-11.52192469 18.82961208 -16.22743231 15.41490903 -23.3671875 12.9375 C-34.03007698 10.45466503 -45.0759649 10.63332382 -54.640625 16.30078125 C-63.07264226 22.28008909 -68.678441 30.33196973 -70.84375 40.6171875 C-72.44372908 54.52811669 -71.29889875 67.75113545 -63.21484375 79.578125 C-57.62784015 86.21987134 -50.65455502 90.30109 -41.97900391 91.31274414 C-31.48934361 92.03302062 -21.67762395 91.97508037 -13.125 85.0625 C-9.87107998 81.36151966 -7.32521766 77.46293532 -5.125 73.0625 C-0.30580529 73.73737737 3.79383866 75.64215909 8.1875 77.625 C8.92806641 77.95435547 9.66863281 78.28371094 10.43164062 78.62304688 C12.24811562 79.43167123 14.06183931 80.24647116 15.875 81.0625 C11.16621071 93.59006966 2.21061472 102.95027745 -9.7421875 108.7734375 C-18.3499994 112.05355058 -26.28693908 113.59808582 -35.5 113.5 C-36.50442139 113.49242676 -37.50884277 113.48485352 -38.54370117 113.47705078 C-55.43142434 113.10331391 -68.45418211 106.1859803 -80.125 94.0625 C-93.3080532 78.39946649 -96.83122385 59.99171819 -95.125 40.0625 C-92.39869165 24.79843829 -83.74109531 10.41025445 -71.42578125 1 C-49.4511341 -13.54527286 -22.11304638 -15.16576577 0 0 Z " fill="#F1F5F8" transform="translate(640.125,296.9375)"/>
<path d="M0 0 C3.5571508 2.89337625 6.21946385 5.99006332 8.44921875 9.9921875 C8.96331299 10.88043213 9.47740723 11.76867676 10.00708008 12.68383789 C12.56552832 18.76285822 11.81487971 25.63663373 11.7421875 32.11328125 C11.73658493 33.58300847 11.73231796 35.05274134 11.72932434 36.5224762 C11.71792744 40.37112176 11.68850557 44.21942201 11.6552124 48.06793213 C11.62439958 52.00292288 11.61079516 55.93796999 11.59570312 59.87304688 C11.56363007 67.57960195 11.51090526 75.28580214 11.44921875 82.9921875 C4.18921875 82.9921875 -3.07078125 82.9921875 -10.55078125 82.9921875 C-11.04578125 79.0321875 -11.04578125 79.0321875 -11.55078125 74.9921875 C-12.31390625 75.7346875 -13.07703125 76.4771875 -13.86328125 77.2421875 C-22.52955089 84.28353159 -32.89236787 85.0103731 -43.61669922 84.21533203 C-50.70632572 83.39736705 -56.32433981 80.30590153 -61.078125 75.03515625 C-65.22679386 69.27984109 -67.39505219 62.75111332 -67.05859375 55.640625 C-65.7594301 48.8649869 -62.46890124 42.14771498 -57.23828125 37.5546875 C-44.94437941 29.65312488 -25.91824628 26.9921875 -11.55078125 26.9921875 C-12.11971758 22.40145988 -12.69523961 18.96655437 -15.80078125 15.4296875 C-21.05880039 12.60545445 -27.82757604 13.31327822 -33.55078125 13.9921875 C-37.625551 15.45225125 -40.30706346 18.3313848 -42.55078125 21.9921875 C-42.88078125 22.9821875 -43.21078125 23.9721875 -43.55078125 24.9921875 C-48.33720732 24.4175254 -52.08866912 23.00973107 -56.42578125 20.9296875 C-57.57820313 20.38183594 -58.730625 19.83398438 -59.91796875 19.26953125 C-60.78679687 18.84800781 -61.655625 18.42648437 -62.55078125 17.9921875 C-61.54908631 9.79226613 -56.76069993 4.43047118 -50.48046875 -0.69140625 C-36.07728807 -10.51705785 -14.11284379 -9.70383838 0 0 Z " fill="#17C8E5" transform="translate(1360.55078125,326.0078125)"/>
<path d="M0 0 C8.18516295 4.98289745 14.68290899 11.4858513 17 21 C17.407071 25.9997814 17.35032752 30.9880929 17.29296875 36 C17.2873643 37.44587766 17.28309822 38.89176106 17.28010559 40.33764648 C17.26872344 44.1188771 17.23931474 47.89975474 17.20599365 51.68084717 C17.17514857 55.54890165 17.1615696 59.41701389 17.14648438 63.28515625 C17.11443743 70.85694937 17.06172516 78.42837999 17 86 C9.74 86 2.48 86 -5 86 C-5.495 82.04 -5.495 82.04 -6 78 C-6.845625 78.763125 -7.69125 79.52625 -8.5625 80.3125 C-17.08487481 87.40777903 -27.48568435 87.67957916 -38.05859375 87.18798828 C-44.41626727 86.57236849 -50.56893335 83.55766855 -55 79 C-60.63736897 71.22653395 -62.00820983 64.6195079 -61 55 C-58.71401657 47.11614496 -54.03124493 42.04730611 -47 38 C-35.29915044 32.28253942 -18.92469926 29.72633816 -6 30 C-6.26214874 24.02336534 -6.26214874 24.02336534 -9.375 19.0625 C-14.6207297 14.94085524 -20.59978433 15.42796 -27 16 C-30.71552887 17.03428729 -33.18519417 18.72549774 -35.30859375 22.046875 C-36.31144716 24.00400068 -37.19996046 25.95269386 -38 28 C-42.98599117 27.46199791 -46.51835705 25.88255471 -50.875 23.4375 C-52.60363281 22.47650391 -52.60363281 22.47650391 -54.3671875 21.49609375 C-55.23601563 21.00238281 -56.10484375 20.50867188 -57 20 C-55.94586033 13.00875186 -51.7808708 8.1913682 -46.375 3.8125 C-32.92541602 -5.39781549 -14.7777714 -8.1454269 0 0 Z " fill="#EFF3F6" transform="translate(817,323)"/>
<path d="M0 0 C6.20881369 5.13596721 9.64283167 10.46373046 11.5625 18.3203125 C11.80300903 21.62974548 11.80300903 21.62974548 11.78955078 25.08178711 C11.78939972 26.38260727 11.78924866 27.68342743 11.78909302 29.02366638 C11.77888281 30.42333127 11.76845087 31.82299455 11.7578125 33.22265625 C11.75407733 34.66996565 11.75123274 36.11727761 11.74923706 37.56459045 C11.74164024 41.35396437 11.72202625 45.14318235 11.6998291 48.93249512 C11.67928503 52.80718884 11.67021712 56.68190801 11.66015625 60.55664062 C11.63877614 68.14461021 11.60362679 75.73241954 11.5625 83.3203125 C4.6325 83.3203125 -2.2975 83.3203125 -9.4375 83.3203125 C-9.9325 79.3603125 -9.9325 79.3603125 -10.4375 75.3203125 C-10.9221875 75.71863281 -11.406875 76.11695313 -11.90625 76.52734375 C-12.5765625 77.05714844 -13.246875 77.58695312 -13.9375 78.1328125 C-14.5871875 78.65488281 -15.236875 79.17695313 -15.90625 79.71484375 C-22.31623822 83.78043813 -28.36358612 84.85197825 -35.875 84.7578125 C-37.13123169 84.74754028 -37.13123169 84.74754028 -38.4128418 84.73706055 C-44.47448002 84.5790852 -49.35871313 83.84083521 -54.4375 80.3203125 C-55.28828125 79.77697266 -55.28828125 79.77697266 -56.15625 79.22265625 C-61.12751174 75.62823906 -63.3919347 70.63126927 -65.1875 64.9453125 C-65.27 64.0790625 -65.3525 63.2128125 -65.4375 62.3203125 C-65.51226563 61.60230469 -65.58703125 60.88429688 -65.6640625 60.14453125 C-66.13214865 52.22402083 -63.89135353 46.30970736 -58.69921875 40.3125 C-47.51003555 30.27482498 -25.13623828 26.76176045 -10.4375 27.3203125 C-10.746875 26.0621875 -11.05625 24.8040625 -11.375 23.5078125 C-11.54902344 22.80011719 -11.72304687 22.09242188 -11.90234375 21.36328125 C-12.34760705 19.66348048 -12.88183985 17.98729296 -13.4375 16.3203125 C-19.58550276 13.6260407 -25.84747135 13.65711216 -32.4375 14.3203125 C-37.92591085 16.72751024 -39.85357176 20.15245603 -42.4375 25.3203125 C-47.44350922 24.77350226 -51.40931067 23.07890917 -55.8125 20.7578125 C-56.45316406 20.42845703 -57.09382813 20.09910156 -57.75390625 19.75976562 C-59.31888632 18.95391768 -60.87874021 18.13812757 -62.4375 17.3203125 C-60.20372213 9.24344198 -54.43741616 3.07025534 -47.5625 -1.6171875 C-33.07833404 -9.61040629 -13.70062378 -9.44113498 0 0 Z " fill="#1CCAE7" transform="translate(1117.4375,325.6796875)"/>
<path d="M0 0 C7.59 0 15.18 0 23 0 C23.33 12.87 23.66 25.74 24 39 C26.97 37.02 29.94 35.04 33 33 C42.09766217 29.36093513 51.18942939 30.23105414 60.27734375 33.69140625 C69.18806409 37.97417715 73.53627155 44.90321836 77 54 C77.83576372 58.1424023 78.12228275 62.05971451 78.11352539 66.28076172 C78.11341209 68.11198074 78.11341209 68.11198074 78.11329651 69.98019409 C78.10555458 71.93519333 78.10555458 71.93519333 78.09765625 73.9296875 C78.09578901 75.28874662 78.09436655 76.64780642 78.09336853 78.00686646 C78.08956748 81.56768686 78.07975802 85.12846587 78.06866455 88.68927002 C78.05839835 92.32929932 78.05385979 95.96933537 78.04882812 99.609375 C78.03813339 106.73960179 78.02055635 113.86979382 78 121 C70.41 121 62.82 121 55 121 C54.98598145 118.41949829 54.98598145 118.41949829 54.97167969 115.78686523 C54.93606221 110.08299874 54.88220742 104.37949645 54.81609726 98.67590237 C54.77670046 95.22003301 54.74447439 91.76441546 54.72900391 88.30834961 C54.71086901 84.32893624 54.66088311 80.35022049 54.609375 76.37109375 C54.60814636 75.13854355 54.60691772 73.90599335 54.60565186 72.63609314 C54.49130813 65.90561013 54.13143225 61.42286132 50 56 C44.94243943 52.17599079 39.09538712 52.18365351 33 53 C28.41795755 55.20919904 26.25714677 57.50563097 24 62 C23.53359753 64.88170153 23.53359753 64.88170153 23.56762695 67.98364258 C23.54783279 69.16448929 23.52803864 70.345336 23.50764465 71.56196594 C23.50125473 72.82671249 23.49486481 74.09145905 23.48828125 75.39453125 C23.47033005 76.69702316 23.45237885 77.99951508 23.43388367 79.34147644 C23.38649089 82.7920939 23.35661275 86.24264646 23.33044434 89.69348145 C23.30058425 93.21961276 23.25407278 96.74552072 23.20898438 100.27148438 C23.12307356 107.18087711 23.05721459 114.09031065 23 121 C15.41 121 7.82 121 0 121 C0 81.07 0 41.14 0 0 Z " fill="#EEF1F4" transform="translate(668,288)"/>
<path d="M0 0 C8.77315688 5.20178328 13.68598268 12.32988157 16.77049255 22.09185791 C17.33227312 24.94456977 17.32637324 27.63759776 17.32055664 30.54589844 C17.32044334 32.43740631 17.32044334 32.43740631 17.32032776 34.36712646 C17.31522153 35.73824096 17.31000555 37.10935506 17.3046875 38.48046875 C17.30282153 39.88722686 17.30139847 41.29398563 17.30039978 42.70074463 C17.29658869 46.39640102 17.28677045 50.09201788 17.2756958 53.78765869 C17.26545139 57.56155869 17.26089567 61.3354651 17.25585938 65.109375 C17.24514688 72.50913466 17.22756152 79.90885362 17.20703125 87.30859375 C9.61703125 87.30859375 2.02703125 87.30859375 -5.79296875 87.30859375 C-5.80755127 85.61855225 -5.82213379 83.92851074 -5.8371582 82.18725586 C-5.88894915 76.583213 -5.95427211 70.97943542 -6.02868366 65.37564754 C-6.07327946 61.98035526 -6.11255849 58.58517997 -6.1394043 55.18969727 C-6.17055557 51.27985389 -6.22534051 47.37050824 -6.28125 43.4609375 C-6.28763992 42.25026108 -6.29402985 41.03958466 -6.3006134 39.79222107 C-6.42441775 29.69266756 -6.42441775 29.69266756 -11.73046875 21.43359375 C-16.41131657 18.88040403 -21.57531085 18.68282735 -26.79296875 19.30859375 C-31.10177995 20.78133195 -34.51916574 23.36311302 -36.9744873 27.23760986 C-38.87756962 32.05293322 -38.39728042 37.48131195 -38.40234375 42.58203125 C-38.41888 43.86091217 -38.43541626 45.13979309 -38.45245361 46.45742798 C-38.49271465 49.84087976 -38.51609255 53.22358071 -38.53118896 56.60717773 C-38.55081358 60.06639807 -38.59277728 63.52534133 -38.6328125 66.984375 C-38.70670918 73.75908387 -38.75627527 80.53358535 -38.79296875 87.30859375 C-46.05296875 87.30859375 -53.31296875 87.30859375 -60.79296875 87.30859375 C-60.79296875 58.26859375 -60.79296875 29.22859375 -60.79296875 -0.69140625 C-53.86296875 -0.69140625 -46.93296875 -0.69140625 -39.79296875 -0.69140625 C-39.46296875 2.27859375 -39.13296875 5.24859375 -38.79296875 8.30859375 C-38.13296875 7.58671875 -37.47296875 6.86484375 -36.79296875 6.12109375 C-27.03564813 -3.66410493 -12.54330453 -6.01163351 0 0 Z " fill="#19C8E5" transform="translate(1205.79296875,321.69140625)"/>
<path d="M0 0 C7.59 0 15.18 0 23 0 C23 6.6 23 13.2 23 20 C29.6 20 36.2 20 43 20 C43 26.6 43 33.2 43 40 C36.4 40 29.8 40 23 40 C23.05107662 45.74867357 23.11404402 51.4946512 23.20751953 57.24243164 C23.23570944 59.19676996 23.25693383 61.15122186 23.27099609 63.10571289 C23.29245307 65.91872223 23.33911695 68.73036871 23.390625 71.54296875 C23.39185364 72.41398727 23.39308228 73.2850058 23.39434814 74.18241882 C23.4933275 78.3008547 23.66644327 80.47195364 25.91308594 84.02856445 C29.37546027 87.29934975 31.94302886 87.24118826 36.625 87.5625 C38.72875 87.706875 40.8325 87.85125 43 88 C43 94.6 43 101.2 43 108 C39.865 108.061875 36.73 108.12375 33.5 108.1875 C32.04303711 108.22846802 32.04303711 108.22846802 30.55664062 108.27026367 C21.91567576 108.35199778 14.38809293 106.04531721 8 100 C1.94977529 92.25315143 0.70287034 84.97075141 0.8046875 75.3515625 C0.8075174 74.33903412 0.81034729 73.32650574 0.81326294 72.28329468 C0.82441746 69.06374062 0.84951354 65.84446935 0.875 62.625 C0.8850359 60.43620195 0.89416069 58.24739951 0.90234375 56.05859375 C0.92434135 50.70562096 0.95883878 45.35285835 1 40 C-3.95 40 -8.9 40 -14 40 C-14 33.4 -14 26.8 -14 20 C-11.20052083 19.64192708 -8.40104167 19.28385417 -5.6015625 18.92578125 C-2.84292764 18.25207766 -2.84292764 18.25207766 -1.6875 15.84375 C-0.90303433 12.59891474 -0.57694798 9.51964175 -0.375 6.1875 C-0.25125 4.145625 -0.1275 2.10375 0 0 Z " fill="#EEF3F6" transform="translate(857,301)"/>
<path d="M0 0 C7.26 0 14.52 0 22 0 C22 6.6 22 13.2 22 20 C28.6 20 35.2 20 42 20 C42 26.6 42 33.2 42 40 C35.4 40 28.8 40 22 40 C22.0740717 45.46342649 22.15696384 50.9252371 22.26245117 56.38793945 C22.29565549 58.2452755 22.32370141 60.10271137 22.34643555 61.96020508 C22.38006442 64.63405798 22.43238374 67.30699993 22.48828125 69.98046875 C22.49467117 70.80773972 22.5010611 71.63501068 22.50764465 72.48735046 C22.65128259 78.15061684 23.63691685 81.67287681 27.796875 85.76953125 C32.11727 88.18251782 37.15428132 87.73664572 42 88 C42 94.6 42 101.2 42 108 C19.39726027 108.60273973 19.39726027 108.60273973 9.1875 102.25 C1.25503857 94.09089682 -0.31498794 85.465575 -0.1953125 74.47265625 C-0.1924826 73.48373886 -0.18965271 72.49482147 -0.18673706 71.47593689 C-0.17560142 68.33799805 -0.15050903 65.20035161 -0.125 62.0625 C-0.11496165 59.92643643 -0.1058373 57.79036836 -0.09765625 55.65429688 C-0.07568375 50.4360864 -0.04119964 45.21809266 0 40 C-4.95 40 -9.9 40 -15 40 C-15 33.4 -15 26.8 -15 20 C-12.49348958 19.34895833 -9.98697917 18.69791667 -7.48046875 18.046875 C-4.47781128 16.77961169 -3.545472 15.8591232 -2 13 C-1.21060842 9.73730087 -1.21060842 9.73730087 -0.8125 6.25 C-0.544375 4.1875 -0.27625 2.125 0 0 Z " fill="#1BC9E6" transform="translate(1244,301)"/>
<path d="M0 0 C10 0 10 0 12.35693359 1.68066406 C12.86562988 2.45120117 13.37432617 3.22173828 13.8984375 4.015625 C14.47980469 4.85480469 15.06117187 5.69398438 15.66015625 6.55859375 C16.22605469 7.44675781 16.79195312 8.33492187 17.375 9.25 C18.54693041 10.98609823 19.72133195 12.72053143 20.8984375 14.453125 C21.40036621 15.22817383 21.90229492 16.00322266 22.41943359 16.80175781 C24.08784706 19.12217716 25.93095703 21.03443715 28 23 C28.22945312 22.48308594 28.45890625 21.96617187 28.6953125 21.43359375 C30.47674335 18.11074519 32.67068335 15.11191181 34.875 12.0625 C35.30941406 11.45470703 35.74382812 10.84691406 36.19140625 10.22070312 C37.05021541 9.02533362 37.92083966 7.83835406 38.80371094 6.66064453 C40.16039553 4.83642765 40.16039553 4.83642765 41.6953125 2.05859375 C44 0 44 0 54 0 C54 17.82 54 35.64 54 54 C50.7 54 47.4 54 44 54 C44 42.45 44 30.9 44 19 C43.34 19 42.68 19 42 19 C41.72816895 19.57524414 41.45633789 20.15048828 41.17626953 20.74316406 C39.99178679 23.01575818 38.66551316 25.02289641 37.1796875 27.109375 C36.64472656 27.86347656 36.10976562 28.61757813 35.55859375 29.39453125 C35.00300781 30.17183594 34.44742187 30.94914063 33.875 31.75 C33.31167969 32.54277344 32.74835938 33.33554687 32.16796875 34.15234375 C30.78111545 36.10334076 29.39172386 38.05247588 28 40 C24.73915993 38.91305331 24.30920764 38.43154529 22.40625 35.76171875 C21.93316406 35.10623047 21.46007813 34.45074219 20.97265625 33.77539062 C20.24369141 32.74188477 20.24369141 32.74188477 19.5 31.6875 C18.53128762 30.33721259 17.56253865 28.98695143 16.59375 27.63671875 C16.16771484 27.03561279 15.74167969 26.43450684 15.30273438 25.81518555 C13.89677868 23.85617494 12.44678825 21.929051 11 20 C10.67 31.22 10.34 42.44 10 54 C6.7 54 3.4 54 0 54 C0 36.18 0 18.36 0 0 Z " fill="#EFF1F4" transform="translate(1164,814)"/>
<path d="M0 0 C4.81473207 2.81431386 8.83413456 6.49534247 11.91796875 11.12109375 C11.91796875 12.11109375 11.91796875 13.10109375 11.91796875 14.12109375 C8.94796875 15.11109375 5.97796875 16.10109375 2.91796875 17.12109375 C2.69109375 16.33734375 2.46421875 15.55359375 2.23046875 14.74609375 C1.14508202 11.9105238 1.14508202 11.9105238 -1.64453125 10.87109375 C-2.44890625 10.62359375 -3.25328125 10.37609375 -4.08203125 10.12109375 C-4.57703125 9.62609375 -4.57703125 9.62609375 -5.08203125 9.12109375 C-9.91403072 8.51899918 -14.86489625 8.09225199 -19.36328125 10.1796875 C-23.18045873 13.16387922 -25.05893717 16.21660618 -25.8671875 20.984375 C-25.97353516 22.04205078 -25.97353516 22.04205078 -26.08203125 23.12109375 C-26.16324219 23.85714844 -26.24445312 24.59320312 -26.328125 25.3515625 C-26.65279614 31.06774223 -25.46397466 35.46829583 -22.08203125 40.12109375 C-18.70099622 43.19476196 -16.74429853 44.03563991 -12.20703125 44.62109375 C-6.19810897 44.28726473 -1.58255158 41.77166611 2.41796875 37.37109375 C2.91296875 36.62859375 3.40796875 35.88609375 3.91796875 35.12109375 C6.55796875 36.44109375 9.19796875 37.76109375 11.91796875 39.12109375 C9.79864085 45.86440979 4.8718384 49.64800312 -1.08203125 53.12109375 C-8.72472916 55.06066919 -17.32222235 55.56401587 -24.2734375 51.4453125 C-29.99458811 47.25639229 -35.28281616 42.15730989 -37.08203125 35.12109375 C-38.04559784 24.51091165 -37.77062866 15.54761191 -31.01953125 6.93359375 C-22.73299157 -1.87411195 -11.30522418 -4.87173578 0 0 Z " fill="#EBECEE" transform="translate(1033.08203125,814.87890625)"/>
<path d="M0 0 C3.17948101 2.19599748 5.26008687 4.43238873 6.59375 8.0234375 C6.82080078 11.23144531 6.82080078 11.23144531 6.7890625 14.9765625 C6.7862326 15.63678406 6.78340271 16.29700562 6.78048706 16.97723389 C6.76933415 19.07615647 6.74423946 21.17464492 6.71875 23.2734375 C6.70871384 24.70051465 6.6995891 26.12759852 6.69140625 27.5546875 C6.66941111 31.04441078 6.63491536 34.53388173 6.59375 38.0234375 C3.62375 38.0234375 0.65375 38.0234375 -2.40625 38.0234375 C-2.40625 37.0334375 -2.40625 36.0434375 -2.40625 35.0234375 C-3.334375 35.6834375 -4.2625 36.3434375 -5.21875 37.0234375 C-10.08662108 39.79377064 -14.94923367 39.85349571 -20.40625 39.0234375 C-24.31700925 37.03375297 -25.98314098 35.65810104 -28.40625 32.0234375 C-28.95159428 28.95802858 -28.94520469 26.09008967 -28.40625 23.0234375 C-25.81085099 19.72657929 -22.75247572 16.53022467 -18.50512695 15.61279297 C-17.80863037 15.53947754 -17.11213379 15.46616211 -16.39453125 15.390625 C-15.25854492 15.26494141 -15.25854492 15.26494141 -14.09960938 15.13671875 C-13.31392578 15.05808594 -12.52824219 14.97945312 -11.71875 14.8984375 C-10.92146484 14.81207031 -10.12417969 14.72570312 -9.30273438 14.63671875 C-7.33801674 14.42495278 -5.37222204 14.22322277 -3.40625 14.0234375 C-3.40625 12.3734375 -3.40625 10.7234375 -3.40625 9.0234375 C-7.09339907 7.79438781 -10.57158091 7.41550216 -14.40625 8.0234375 C-15.77820574 9.31699577 -17.11807656 10.64642452 -18.40625 12.0234375 C-21.92949572 11.85157186 -23.43216724 11.00615934 -26.40625 9.0234375 C-25.05469718 4.60017372 -23.20734562 2.61930768 -19.40625 0.0234375 C-13.5283615 -1.93585867 -5.80140551 -2.35446652 0 0 Z " fill="#ECEDEF" transform="translate(1363.40625,829.9765625)"/>
<path d="M0 0 C4.70151347 1.97510039 8.35467873 4.59584821 11 9 C11.34057617 12.29980469 11.34057617 12.29980469 11.29296875 16.171875 C11.28872391 16.8542926 11.28447906 17.53671021 11.28010559 18.23980713 C11.26336972 20.41028004 11.22572959 22.57980979 11.1875 24.75 C11.17244646 26.22524697 11.15875922 27.70050855 11.14648438 29.17578125 C11.11348377 32.78415844 11.06173767 36.3919871 11 40 C8.03 40 5.06 40 2 40 C2 39.01 2 38.02 2 37 C0.865625 37.66 -0.26875 38.32 -1.4375 39 C-6.00010578 41.26111437 -9.97053386 41.93895763 -15 41 C-18.8026029 38.9949912 -20.61790841 37.57313738 -23 34 C-23.70188829 29.64176342 -23.55029428 26.0547307 -21.5 22.125 C-14.94223606 16.55090065 -7.25529373 16.39900586 1 16 C0.34 14.02 -0.32 12.04 -1 10 C-5.02020445 9.72326354 -5.02020445 9.72326354 -9 10 C-10.35308313 11.31328657 -11.68870078 12.64499081 -13 14 C-16.90045589 13.84079772 -18.73124169 13.17917221 -22 11 C-20.329751 5.92001988 -18.09289188 3.94751811 -13.6328125 1.1796875 C-9.04921191 -0.87409199 -4.89009687 -0.97225785 0 0 Z " fill="#EFF0F2" transform="translate(1115,828)"/>
<path d="M0 0 C3.81302371 2.03799543 5.78738766 4.45397702 7.625 8.28125 C7.96557617 11.6027832 7.96557617 11.6027832 7.91796875 15.33203125 C7.91372391 15.99083786 7.90947906 16.64964447 7.90510559 17.32841492 C7.88841196 19.41728885 7.85078058 21.50517139 7.8125 23.59375 C7.79744097 25.01626203 7.78375469 26.4387893 7.77148438 27.86132812 C7.73854003 31.33495351 7.68682408 34.80800487 7.625 38.28125 C4.655 38.28125 1.685 38.28125 -1.375 38.28125 C-1.705 37.29125 -2.035 36.30125 -2.375 35.28125 C-3.138125 35.94125 -3.90125 36.60125 -4.6875 37.28125 C-9.25107075 40.28758334 -14.12361481 40.24501578 -19.375 39.28125 C-22.64467712 37.88881854 -24.5705588 36.35526546 -26.375 33.28125 C-27.36262084 29.38274669 -27.36551838 26.17960595 -26.375 22.28125 C-24.01199223 18.39421767 -20.96540213 16.75239514 -16.671875 15.48046875 C-11.91228565 14.52464958 -7.23645515 14.01846864 -2.375 14.28125 C-2.71944881 11.80858235 -2.71944881 11.80858235 -3.375 9.28125 C-6.46673752 7.73538124 -8.96929552 7.98765479 -12.375 8.28125 C-13.055625 8.961875 -13.73625 9.6425 -14.4375 10.34375 C-15.076875 10.983125 -15.71625 11.6225 -16.375 12.28125 C-20.27545589 12.12204772 -22.10624169 11.46042221 -25.375 9.28125 C-24.02217831 4.85383356 -22.14201112 2.91815779 -18.375 0.28125 C-13.36376767 -2.22436616 -5.26122461 -1.59221271 0 0 Z " fill="#EFF0F2" transform="translate(1251.375,829.71875)"/>
<path d="M0 0 C3.3 0 6.6 0 10 0 C10.33 5.94 10.66 11.88 11 18 C11.99 17.01 12.98 16.02 14 15 C19.50865532 14.11766127 24.51170884 14.29501998 29.5625 16.6875 C33.04387987 19.99034757 34.84312499 22.47004695 35.34057617 27.3215332 C35.3170105 29.16751099 35.3170105 29.16751099 35.29296875 31.05078125 C35.28872391 31.70958786 35.28447906 32.36839447 35.28010559 33.04716492 C35.26341196 35.13603885 35.22578058 37.22392139 35.1875 39.3125 C35.17244097 40.73501203 35.15875469 42.1575393 35.14648438 43.58007812 C35.11354003 47.05370351 35.06182408 50.52675487 35 54 C32.03 54 29.06 54 26 54 C25.99589111 53.23333008 25.99178223 52.46666016 25.98754883 51.67675781 C25.95463865 48.20038955 25.88399547 44.72577979 25.8125 41.25 C25.80669922 40.0434375 25.80089844 38.836875 25.79492188 37.59375 C25.76591797 36.43359375 25.73691406 35.2734375 25.70703125 34.078125 C25.6913208 33.00981445 25.67561035 31.94150391 25.65942383 30.84082031 C25.2133395 27.80945393 25.2133395 27.80945393 22.6862793 25.61621094 C19.9957334 23.67425905 19.9957334 23.67425905 16.3125 24.0625 C12.74005552 24.68624135 12.74005552 24.68624135 11 28 C10.63112811 30.90644244 10.63112811 30.90644244 10.5859375 34.19921875 C10.52792969 36.01196289 10.52792969 36.01196289 10.46875 37.86132812 C10.4378125 39.12396484 10.406875 40.38660156 10.375 41.6875 C10.31699219 43.59885742 10.31699219 43.59885742 10.2578125 45.54882812 C10.16342314 48.69907292 10.0778417 51.84930991 10 55 C6.7 55 3.4 55 0 55 C0 36.85 0 18.7 0 0 Z " fill="#EEEFF1" transform="translate(1051,814)"/>
<path d="M0 0 C4.73499708 1.05396945 8.78504275 4.13943523 11.44116211 8.18164062 C12.70145438 11.42345437 12.57533972 14.22261643 12.546875 17.6953125 C12.5440451 18.3777301 12.54121521 19.06014771 12.53829956 19.76324463 C12.52714348 21.93349057 12.50204807 24.10331721 12.4765625 26.2734375 C12.46652676 27.74869194 12.45740194 29.22395287 12.44921875 30.69921875 C12.42721937 34.30742692 12.39272133 37.91539125 12.3515625 41.5234375 C9.0515625 41.5234375 5.7515625 41.5234375 2.3515625 41.5234375 C2.3422168 40.69094482 2.33287109 39.85845215 2.32324219 39.00073242 C2.27919884 35.90841461 2.21757475 32.81708804 2.14404297 29.7253418 C2.10197601 27.73054619 2.08018386 25.73535668 2.05859375 23.74023438 C2.02636719 22.48662109 1.99414062 21.23300781 1.9609375 19.94140625 C1.93999023 18.78406982 1.91904297 17.6267334 1.89746094 16.43432617 C1.61722231 13.44404346 1.61722231 13.44404346 -0.49511719 11.6496582 C-3.43929202 10.10980803 -5.37608452 10.03606578 -8.6484375 10.5234375 C-11.80124038 13.66831759 -12.05352031 16.25081612 -12.16015625 20.6015625 C-12.19560547 21.76171875 -12.23105469 22.921875 -12.26757812 24.1171875 C-12.30141602 25.92703125 -12.30141602 25.92703125 -12.3359375 27.7734375 C-12.37009766 28.99546875 -12.40425781 30.2175 -12.43945312 31.4765625 C-12.52190912 34.49209596 -12.59106951 37.50733944 -12.6484375 40.5234375 C-15.9484375 40.5234375 -19.2484375 40.5234375 -22.6484375 40.5234375 C-22.6484375 27.6534375 -22.6484375 14.7834375 -22.6484375 1.5234375 C-19.3484375 1.5234375 -16.0484375 1.5234375 -12.6484375 1.5234375 C-12.3184375 2.5134375 -11.9884375 3.5034375 -11.6484375 4.5234375 C-11.0090625 3.8634375 -10.3696875 3.2034375 -9.7109375 2.5234375 C-6.16818414 0.20980265 -4.15278781 -0.18055599 0 0 Z " fill="#EAEBED" transform="translate(1288.6484375,827.4765625)"/>
<path d="M0 0 C2.97 0 5.94 0 9 0 C9 2.97 9 5.94 9 9 C12.3 9 15.6 9 19 9 C19 11.97 19 14.94 19 18 C15.7 18 12.4 18 9 18 C9.11355702 21.1258064 9.24030583 24.25009525 9.375 27.375 C9.4059375 28.26445313 9.436875 29.15390625 9.46875 30.0703125 C9.50742188 30.92109375 9.54609375 31.771875 9.5859375 32.6484375 C9.63306885 33.82672119 9.63306885 33.82672119 9.68115234 35.02880859 C9.8399465 37.23002939 9.8399465 37.23002939 12 39 C14.32275177 39.40047444 16.65739357 39.7397104 19 40 C19 42.64 19 45.28 19 48 C7.17928253 48.86073185 7.17928253 48.86073185 3.3125 45.6875 C0.16697056 42.03188471 -0.1245802 39.55237396 -0.09765625 34.89453125 C-0.09443359 33.91162109 -0.09121094 32.92871094 -0.08789062 31.91601562 C-0.07951172 30.89185547 -0.07113281 29.86769531 -0.0625 28.8125 C-0.05798828 27.77673828 -0.05347656 26.74097656 -0.04882812 25.67382812 C-0.0370401 23.11582734 -0.02058515 20.55794267 0 18 C-2.31 18 -4.62 18 -7 18 C-7 15.03 -7 12.06 -7 9 C-6.21625 8.814375 -5.4325 8.62875 -4.625 8.4375 C-1.60623658 7.16038373 -1.60623658 7.16038373 -0.6875 3.375 C-0.460625 2.26125 -0.23375 1.1475 0 0 Z " fill="#ECEEF1" transform="translate(1138,820)"/>
<path d="M0 0 C2.97 0 5.94 0 9 0 C9 2.97 9 5.94 9 9 C12.3 9 15.6 9 19 9 C19 11.97 19 14.94 19 18 C16.03 18 13.06 18 10 18 C10.14014682 21.3128323 10.28683615 24.62514408 10.4375 27.9375 C10.47681641 28.88302734 10.51613281 29.82855469 10.55664062 30.80273438 C10.59853516 31.70185547 10.64042969 32.60097656 10.68359375 33.52734375 C10.72025146 34.35999756 10.75690918 35.19265137 10.79467773 36.05053711 C10.79367103 38.00338858 10.79367103 38.00338858 12 39 C14.32817964 39.36760731 16.6618385 39.70241581 19 40 C19 42.64 19 45.28 19 48 C8.11593304 48.6249225 8.11593304 48.6249225 3.875 46.25 C0.63497628 42.36197154 -0.25160951 39.64485583 -0.1953125 34.578125 C-0.18886719 33.55332031 -0.18242188 32.52851562 -0.17578125 31.47265625 C-0.15902344 30.40917969 -0.14226562 29.34570312 -0.125 28.25 C-0.11597656 27.17105469 -0.10695313 26.09210937 -0.09765625 24.98046875 C-0.07411305 22.32008722 -0.04122799 19.66015664 0 17 C-1.98 17 -3.96 17 -6 17 C-6.3125 13.75 -6.3125 13.75 -6 10 C-4.37064759 8.62131719 -2.70250393 7.28725907 -1 6 C-0.11406002 2.86136296 -0.11406002 2.86136296 0 0 Z " fill="#EDEEF0" transform="translate(1312,820)"/>
<path d="M0 0 C0.44262519 7.37708642 -0.36312447 11.85039867 -5.25 17.6875 C-10.96673761 22.49475663 -16.03350438 23.65595715 -23.3984375 23.40234375 C-27.82160316 22.71828059 -29.27916421 21.60326902 -32 18 C-32.76845008 14.82449305 -32.79018136 12.17260785 -32 9 C-26.82177225 3.06026817 -18.64302763 2.47776516 -11.25 1.375 C-9.95642578 1.17390625 -9.95642578 1.17390625 -8.63671875 0.96875 C-2.32007334 0 -2.32007334 0 0 0 Z " fill="#0A1018" transform="translate(811,370)"/>
<path d="M0 0 C0.64082614 6.1519309 0.02327699 10.18004697 -3.57421875 15.27734375 C-7.3995227 19.89914935 -11.74414115 22.5976956 -17.71875 23.3359375 C-25.26349497 23.44190302 -25.26349497 23.44190302 -29.125 21.125 C-31.49062162 18.44396216 -31.9492485 17.32988474 -32.5 13.75 C-31.88580226 9.14351698 -30.76111414 8.17214837 -27.28173828 5.35546875 C-22.93054889 2.77064064 -18.13494864 2.30035617 -13.1875 1.625 C-12.13884766 1.46128906 -11.09019531 1.29757812 -10.00976562 1.12890625 C-2.65290179 0 -2.65290179 0 0 0 Z " fill="#04121D" transform="translate(1107,370)"/>
<path d="M0 0 C0.37034447 4.62930592 0.48658988 8.02682024 -1.625 12.25 C-6.00865914 17.32581585 -10.40714113 21.49825912 -17.32421875 22.25390625 C-23.23356561 22.52773249 -26.51637229 21.90880365 -31 18 C-32.42662219 15.14675563 -32.31033868 13.16545451 -32 10 C-29.98611174 6.23490457 -27.84900783 4.71447413 -23.9375 3.3125 C-16.01552211 1.01929587 -8.24899132 -0.31128269 0 0 Z " fill="#040F19" transform="translate(1349,371)"/>
<path d="M0 0 C0.33 0 0.66 0 1 0 C1.12375 1.175625 1.12375 1.175625 1.25 2.375 C1.74166667 5.08958333 1.74166667 5.08958333 3.8125 6.375 C6.39829204 7.11379773 7.52992271 7.03583886 10 6 C10.4125 5.484375 10.825 4.96875 11.25 4.4375 C13.7611398 2.37477802 15.90049995 2.68125284 19.0625 2.69921875 C21 3 21 3 24 5 C24.1875 7.625 24.1875 7.625 24 10 C22.83082031 10.18175781 21.66164063 10.36351562 20.45703125 10.55078125 C18.90876352 10.80413415 17.3605913 11.05807126 15.8125 11.3125 C15.04357422 11.43044922 14.27464844 11.54839844 13.48242188 11.66992188 C7.85942444 12.61111029 3.70031853 13.62180118 0.2265625 18.48046875 C-0.30195312 19.37378906 -0.83046875 20.26710938 -1.375 21.1875 C-3.16015625 23.87109375 -3.16015625 23.87109375 -5 26 C-8.8125 26.75 -8.8125 26.75 -12 26 C-12.66 25.34 -13.32 24.68 -14 24 C-13.9765625 21.86328125 -13.9765625 21.86328125 -13.625 19.3125 C-13.11180223 15.15257923 -12.90897662 11.18707561 -13 7 C-11.906875 6.896875 -10.81375 6.79375 -9.6875 6.6875 C-6.01463192 6.00272798 -5.24762314 5.72080696 -3 3 C-2.34 3 -1.68 3 -1 3 C-0.67 2.01 -0.34 1.02 0 0 Z " fill="#09111C" transform="translate(1336,834)"/>
<path d="M0 0 C0.33 0 0.66 0 1 0 C1 17.16 1 34.32 1 52 C0.01 52 -0.98 52 -2 52 C-2.33 52.66 -2.66 53.32 -3 54 C-6.63 54 -10.26 54 -14 54 C-14 53.67 -14 53.34 -14 53 C-10.7 53 -7.4 53 -4 53 C-4 50.36 -4 47.72 -4 45 C-5.093125 45.061875 -6.18625 45.12375 -7.3125 45.1875 C-11 45 -11 45 -12.7121582 43.76635742 C-14.34244046 41.530321 -14.34827833 40.29782359 -14.29296875 37.55078125 C-14.28330078 36.70322266 -14.27363281 35.85566406 -14.26367188 34.98242188 C-14.23853516 34.10134766 -14.21339844 33.22027344 -14.1875 32.3125 C-14.17396484 31.41982422 -14.16042969 30.52714844 -14.14648438 29.60742188 C-14.11114643 27.40469017 -14.05733969 25.2022688 -14 23 C-10.7 23 -7.4 23 -4 23 C-4 20.03 -4 17.06 -4 14 C-3.34 15.32 -2.68 16.64 -2 18 C0.11925604 15.88074396 -0.58168983 11.3803907 -0.4375 8.4375 C-0.39431641 7.63119141 -0.35113281 6.82488281 -0.30664062 5.99414062 C-0.20024738 3.99631195 -0.09959112 1.9981793 0 0 Z " fill="#0C131C" transform="translate(1161,815)"/>
<path d="M0 0 C0.66 0 1.32 0 2 0 C2.33 0.99 2.66 1.98 3 3 C3.99 2.01 4.98 1.02 6 0 C6.66 0.33 7.32 0.66 8 1 C7.67 1.66 7.34 2.32 7 3 C7.99 2.67 8.98 2.34 10 2 C10.33 1.34 10.66 0.68 11 0 C11.99 0 12.98 0 14 0 C14 2.97 14 5.94 14 9 C15.32 9 16.64 9 18 9 C18 6.03 18 3.06 18 0 C18.66 0 19.32 0 20 0 C20.02688151 1.64574566 20.04634123 3.29161413 20.0625 4.9375 C20.07410156 5.85402344 20.08570313 6.77054687 20.09765625 7.71484375 C20 10 20 10 19 11 C17.39178 10.90918976 15.78707239 10.75220039 14.1875 10.5625 C11.06033573 10.19758718 8.16375851 10 5 10 C4.34 9.34 3.68 8.68 3 8 C2.67 8.99 2.34 9.98 2 11 C1.34 11 0.68 11 0 11 C0 7.37 0 3.74 0 0 Z " fill="#101620" transform="translate(185,70)"/>
<path d="M0 0 C0 0.66 0 1.32 0 2 C-16 -2 -16 -2 -17.92138672 -2.5480957 C-40.71852081 -7.50434367 -62.83613043 0.38931681 -82 12 C-82.66 12.33 -83.32 12.66 -84 13 C-83.83984375 11.1953125 -83.83984375 11.1953125 -83 9 C-80.56640625 7.3671875 -80.56640625 7.3671875 -77.5625 5.875 C-73.47586569 3.86269925 -73.47586569 3.86269925 -70 1 C-68.21582031 0.32983398 -68.21582031 0.32983398 -66.078125 -0.25390625 C-65.29953125 -0.46853516 -64.5209375 -0.68316406 -63.71875 -0.90429688 C-62.9040625 -1.12150391 -62.089375 -1.33871094 -61.25 -1.5625 C-60.45078125 -1.78357422 -59.6515625 -2.00464844 -58.828125 -2.23242188 C-54.57087195 -3.39126296 -50.373687 -4.37156021 -46 -5 C-45.28199219 -5.11601563 -44.56398438 -5.23203125 -43.82421875 -5.3515625 C-28.81932065 -7.27175056 -14.2279251 -4.7426417 0 0 Z " fill="#1BD6EA" transform="translate(543,866)"/>
<path d="M0 0 C0.92028083 3.01618053 1.27934835 4.43462945 -0.14453125 7.31640625 C-0.69496094 8.05761719 -1.24539063 8.79882812 -1.8125 9.5625 C-5.1934921 14.19630627 -7.16723318 17.45162032 -7.625 23.25 C-7.69976562 24.14203125 -7.77453125 25.0340625 -7.8515625 25.953125 C-7.90054687 26.62859375 -7.94953125 27.3040625 -8 28 C-9.9451 25.08235 -10.45276317 23.37462715 -11 20 C-10.34 20 -9.68 20 -9 20 C-8.9071875 18.7934375 -8.9071875 18.7934375 -8.8125 17.5625 C-7.73463007 12.8364549 -5.48408581 9.12486573 -3 5 C-2.34 5 -1.68 5 -1 5 C-1 4.01 -1 3.02 -1 2 C-6.89404239 4.10875739 -10.82989659 6.27996896 -14.66015625 11.27734375 C-16 13 -16 13 -18.6875 15.5 C-21.51040306 18.55178709 -22.5385869 21.12725527 -24 25 C-24.33 25.66 -24.66 26.32 -25 27 C-25.90875448 24.50806946 -26.08393372 23.26968869 -25.28515625 20.703125 C-20.97534064 12.05595502 -11.27399008 -1.76156095 0 0 Z " fill="#5CD6E7" transform="translate(309,719)"/>
<path d="M0 0 C2.4375 0.25 2.4375 0.25 5 1 C5.66 1.99 6.32 2.98 7 4 C7.66 2.68 8.32 1.36 9 0 C11.97 0 14.94 0 18 0 C17.67 2.64 17.34 5.28 17 8 C16.67 8 16.34 8 16 8 C16 6.02 16 4.04 16 2 C15.34 2 14.68 2 14 2 C14 4.97 14 7.94 14 11 C13.67 11 13.34 11 13 11 C13 8.03 13 5.06 13 2 C12.34 2 11.68 2 11 2 C11 4.64 11 7.28 11 10 C9.68 10 8.36 10 7 10 C6.01 10.66 5.02 11.32 4 12 C1.3125 11.625 1.3125 11.625 -1 11 C-1.33 10.01 -1.66 9.02 -2 8 C-0.02 8.66 1.96 9.32 4 10 C4 9.01 4 8.02 4 7 C2.68 6.67 1.36 6.34 0 6 C-0.38218767 4.34385343 -0.71395102 2.67542976 -1 1 C-0.67 0.67 -0.34 0.34 0 0 Z " fill="#0A111B" transform="translate(59,617)"/>
<path d="M0 0 C-0.19557016 4.20475835 -0.76243744 5.74586331 -3.6875 8.875 C-7.26602062 11.17065474 -8.84814805 11.6605219 -13 11 C-15 9 -15 9 -15.375 6.5625 C-15 4 -15 4 -13.375 2.25 C-9.10152108 0.00080057 -4.75527983 -0.13986117 0 0 Z " fill="#16191E" transform="translate(1117,851)"/>
<path d="M0 0 C3.12822745 3.5318697 4.35016125 7.50529271 5.6875 11.9375 C5.91244141 12.64068359 6.13738281 13.34386719 6.36914062 14.06835938 C7.52059457 17.80271 8.28335979 21.08657162 8 25 C7.05125 24.175 6.1025 23.35 5.125 22.5 C4.47917969 21.95214844 3.83335937 21.40429688 3.16796875 20.83984375 C1.70112599 19.59500962 0.24560929 18.33672575 -1.19921875 17.06640625 C-7.91433267 11.37243362 -15.06340963 7.65952294 -23 4 C-18.44479672 2.53870691 -15.13713371 3.91655137 -11 6 C-8.17070633 7.8092082 -5.43283467 9.67716052 -3 12 C-3 12.66 -3 13.32 -3 14 C-2.1028125 14.1546875 -2.1028125 14.1546875 -1.1875 14.3125 C1.29983964 15.09423531 2.24696028 16.1264074 4 18 C3.566875 16.67935547 3.566875 16.67935547 3.125 15.33203125 C2.75375 14.17058594 2.3825 13.00914062 2 11.8125 C1.62875 10.66394531 1.2575 9.51539063 0.875 8.33203125 C0.09369447 5.35679188 -0.18363306 3.04716104 0 0 Z " fill="#0DC4DD" transform="translate(444,952)"/>
<path d="M0 0 C0.3125 2.75 0.3125 2.75 0 6 C-2.1360126 8.53651497 -3.71857948 9.80398921 -7.04296875 10.3125 C-9.1875 10.375 -9.1875 10.375 -13 10 C-13.66 9.34 -14.32 8.68 -15 8 C-14.625 5.375 -14.625 5.375 -14 3 C-4.58997722 -0.44419134 -4.58997722 -0.44419134 0 0 Z " fill="#131820" transform="translate(1360,851)"/>
<path d="M0 0 C1.051875 -0.02126953 1.051875 -0.02126953 2.125 -0.04296875 C4 0.1875 4 0.1875 6 2.1875 C6.125 4.8125 6.125 4.8125 6 7.1875 C3.37583048 7.54914523 0.75099687 7.90211153 -1.875 8.25 C-2.62136719 8.35376953 -3.36773438 8.45753906 -4.13671875 8.56445312 C-9.7734375 9.30078125 -9.7734375 9.30078125 -12 8.1875 C-11.67 6.8675 -11.34 5.5475 -11 4.1875 C-10.01 4.5175 -9.02 4.8475 -8 5.1875 C-7.566875 4.2284375 -7.566875 4.2284375 -7.125 3.25 C-5.3461717 -0.01118522 -3.4696937 0.03189057 0 0 Z " fill="#131822" transform="translate(1110,836.8125)"/>
<path d="M0 0 C2.61079184 0.80810224 5.11341881 1.73610806 7.625 2.8125 C7.625 4.7925 7.625 6.7725 7.625 8.8125 C4.35526626 10.69888485 1.40127333 11.57146128 -2.375 11.8125 C-4.25 10.75 -4.25 10.75 -5.375 8.8125 C-5.77611303 5.60359575 -5.89733914 3.66473754 -4.1875 0.875 C-2.375 -0.1875 -2.375 -0.1875 0 0 Z " fill="#080C13" transform="translate(794.375,617.1875)"/>
<path d="M0 0 C-0.23564395 4.08449505 -0.40962119 6.34214932 -3.1875 9.4375 C-6.45612095 11.25340053 -8.31616 11.49117867 -12 11 C-14 9 -14 9 -14.4375 6.5625 C-14 4 -14 4 -11.9375 2.25 C-8.02785078 0.58631948 -4.24277823 0 0 0 Z " fill="#13171E" transform="translate(1249,851)"/>
<path d="M0 0 C2.68930863 0.94125802 3.95731359 1.47526558 5.5 3.875 C5.3579936 6.71512798 4.82548508 8.38677239 3.25 10.75 C1.5 11.875 1.5 11.875 -1 11.75 C-3.68930863 10.80874198 -4.95731359 10.27473442 -6.5 7.875 C-6.3579936 5.03487202 -5.82548508 3.36322761 -4.25 1 C-2.5 -0.125 -2.5 -0.125 0 0 Z " fill="#AAAAAF" transform="translate(213.5,617.125)"/>
<path d="M0 0 C2 2 2 2 2.3125 4.9375 C2 8 2 8 0.875 9.9375 C-1 11 -1 11 -4.0625 10.875 C-7 10 -7 10 -9 7 C-9.375 4.5 -9.375 4.5 -9 2 C-6.07557433 -1.24936186 -4.04996841 -1.38551551 0 0 Z " fill="#5E6168" transform="translate(150,618)"/>
<path d="M0 0 C2 2 2 2 2.3125 4.9375 C2 8 2 8 0.875 9.9375 C-1 11 -1 11 -4.0625 10.875 C-7 10 -7 10 -9 7 C-9.375 4.5 -9.375 4.5 -9 2 C-6.07557433 -1.24936186 -4.04996841 -1.38551551 0 0 Z " fill="#B1B1B3" transform="translate(837,618)"/>
<path d="M0 0 C2.9375 0.875 2.9375 0.875 4.9375 3.875 C4.75 6.9375 4.75 6.9375 3.9375 9.875 C0.9375 11.875 0.9375 11.875 -1.625 11.625 C-4.0625 10.875 -4.0625 10.875 -6.0625 8.875 C-6.39552312 5.7445827 -6.53921956 3.69601702 -4.9375 0.9375 C-3.0625 -0.125 -3.0625 -0.125 0 0 Z " fill="#17191E" transform="translate(937.0625,617.125)"/>
<path d="M0 0 C2.68930863 0.94125802 3.95731359 1.47526558 5.5 3.875 C5.3579936 6.71512798 4.82548508 8.38677239 3.25 10.75 C1.5 11.875 1.5 11.875 -1 11.75 C-3.68930863 10.80874198 -4.95731359 10.27473442 -6.5 7.875 C-6.3579936 5.03487202 -5.82548508 3.36322761 -4.25 1 C-2.5 -0.125 -2.5 -0.125 0 0 Z " fill="#747578" transform="translate(779.5,617.125)"/>
<path d="M0 0 C2.4375 0.75 2.4375 0.75 4.4375 2.75 C4.77052312 5.8804173 4.91421956 7.92898298 3.3125 10.6875 C1.4375 11.75 1.4375 11.75 -1.625 11.625 C-4.5625 10.75 -4.5625 10.75 -6.5625 7.75 C-6.375 4.6875 -6.375 4.6875 -5.5625 1.75 C-2.5625 -0.25 -2.5625 -0.25 0 0 Z " fill="#5A5B60" transform="translate(751.5625,617.25)"/>
<path d="M0 0 C3.875 0.4375 3.875 0.4375 6.875 2.4375 C7.0625 5.0625 7.0625 5.0625 6.875 7.4375 C5.29413952 7.80254603 3.71016093 8.15410506 2.125 8.5 C1.24328125 8.69722656 0.3615625 8.89445313 -0.546875 9.09765625 C-3.17206587 9.44370414 -4.68954179 9.44874461 -7.125 8.4375 C-7.785 7.4475 -8.445 6.4575 -9.125 5.4375 C-6.33651779 1.95189724 -4.48882716 0.07453772 0 0 Z " fill="#0D1119" transform="translate(1353.125,836.5625)"/>
<path d="M0 0 C3.0625 0.3125 3.0625 0.3125 5 1.4375 C6.0625 3.3125 6.0625 3.3125 5.875 6.375 C5.0625 9.3125 5.0625 9.3125 3.0625 11.3125 C0.0625 11.5625 0.0625 11.5625 -2.9375 11.3125 C-4.9375 9.3125 -4.9375 9.3125 -5.1875 5.8125 C-4.87458101 1.43163414 -4.40975115 0.46912246 0 0 Z " fill="#747578" transform="translate(160.9375,69.6875)"/>
<path d="M0 0 C0.99 0.66 1.98 1.32 3 2 C3 3.65 3 5.3 3 7 C-1.95 7.66 -6.9 8.32 -12 9 C-12.33 7.68 -12.66 6.36 -13 5 C-12.34 5 -11.68 5 -11 5 C-10.71125 4.360625 -10.4225 3.72125 -10.125 3.0625 C-7.86349124 -1.08359939 -4.29884047 -0.22625476 0 0 Z " fill="#131822" transform="translate(1246,837)"/>
<path d="M0 0 C7.87127781 -0.20456428 15.62215058 0.48918762 23.44848633 1.22680664 C25.69245075 1.43796587 27.9369604 1.64230881 30.18164062 1.84570312 C42.09697529 2.94416056 42.09697529 2.94416056 48 4 C48 4.66 48 5.32 48 6 C37.73486583 5.50748094 27.49256209 4.84414999 17.25 4 C16.22712891 3.9170166 15.20425781 3.8340332 14.15039062 3.74853516 C9.38986765 3.34709278 4.69915064 2.89507631 0 2 C0 1.34 0 0.68 0 0 Z " fill="#2BD9EE" transform="translate(280,441)"/>
<path d="M0 0 C3.55930982 -0.32357362 5.41791735 -0.3880551 8.4375 1.625 C10 4 10 4 9.8125 7.1875 C9 10 9 10 8 11 C5.32941149 11.14115161 2.67567762 11.04247107 0 11 C0 7.37 0 3.74 0 0 Z " fill="#AAABAE" transform="translate(105,617)"/>
<path d="M0 0 C1.32 0.33 2.64 0.66 4 1 C3.38253906 1.53367187 2.76507813 2.06734375 2.12890625 2.6171875 C-4.98851 8.87878049 -11.21029084 15.64183447 -17.421875 22.78515625 C-18.21078125 23.68105469 -18.9996875 24.57695313 -19.8125 25.5 C-20.52019531 26.3146875 -21.22789062 27.129375 -21.95703125 27.96875 C-23.90650641 29.9070427 -25.47977312 30.95792866 -28 32 C-26.77754637 27.38184184 -24.38803214 25.42646849 -20.8125 22.55859375 C-19.0344938 21.02966169 -17.63898229 19.4609523 -16.1875 17.625 C-15.465625 16.75875 -14.74375 15.8925 -14 15 C-13.34 15 -12.68 15 -12 15 C-11.690625 13.948125 -11.690625 13.948125 -11.375 12.875 C-9.6165622 9.19826641 -7.19571859 6.52704921 -4 4 C-3.34 4 -2.68 4 -2 4 C-1.34 2.68 -0.68 1.36 0 0 Z " fill="#1AD0E8" transform="translate(455,879)"/>
<path d="M0 0 C0.94875 0.04125 1.8975 0.0825 2.875 0.125 C4.84233733 3.6907989 4.875 6.06441676 4.875 10.125 C2.11249964 11.50625018 -0.07231099 11.31579306 -3.125 11.125 C-5.125 9.125 -5.125 9.125 -5.375 5.625 C-5.05328869 1.12104166 -4.56738407 0.18269536 0 0 Z " fill="#4E5259" transform="translate(176.125,69.875)"/>
<path d="M0 0 C-0.66 0.66 -1.32 1.32 -2 2 C-3.01578125 1.60167969 -4.0315625 1.20335937 -5.078125 0.79296875 C-20.59760627 -5.22184914 -34.36069445 -7.57676865 -51 -8 C-51 -8.33 -51 -8.66 -51 -9 C-32.63095376 -10.64565305 -16.49681856 -8.8829023 0 0 Z " fill="#58D0DD" transform="translate(162,372)"/>
<path d="M0 0 C0 3 0 3 -2.3125 5.6875 C-5 8 -5 8 -8 8 C-8 8.66 -8 9.32 -8 10 C-9.65 10.33 -11.3 10.66 -13 11 C-13 11.66 -13 12.32 -13 13 C-20.37484982 16.72731977 -26.67404102 19.7177641 -35 20 C-32.31976251 18.21317501 -29.77500609 17.04757926 -26.80688477 15.84228516 C-17.53541956 12.04566142 -7.18458829 7.18458829 0 0 Z " fill="#5DD4E4" transform="translate(215,271)"/>
<path d="M0 0 C0 0.99 0 1.98 0 3 C-1.50240234 3.77923828 -1.50240234 3.77923828 -3.03515625 4.57421875 C-9.65911882 8.03808761 -16.07686861 11.40655117 -22 16 C-23.39461379 17.04329886 -24.79050033 18.08489805 -26.1875 19.125 C-28.16187936 20.61282151 -30.12834793 22.10165932 -32.06640625 23.63671875 C-34.35329007 25.24908734 -36.25315234 25.61849338 -39 26 C-28.44791382 14.96652302 -13.64627336 6.7074903 0 0 Z " fill="#5ED3E3" transform="translate(138,308)"/>
<path d="M0 0 C4.20188748 0.65362694 7.96925446 1.65641815 12 3 C12.495 4.485 12.495 4.485 13 6 C11.17275391 5.51273437 11.17275391 5.51273437 9.30859375 5.015625 C3.23275316 3.67045552 -2.73908027 3.70717845 -8.9375 3.75 C-10.05318359 3.74226563 -11.16886719 3.73453125 -12.31835938 3.7265625 C-19.13659596 3.74253962 -25.37561132 4.42689922 -32 6 C-33.66559528 6.33864618 -35.33201265 6.67333948 -37 7 C-36.67 6.01 -36.34 5.02 -36 4 C-23.72737538 0.96612492 -12.5637478 0.93156653 0 2 C0 1.34 0 0.68 0 0 Z " fill="#1EC0D4" transform="translate(468,361)"/>
<path d="M0 0 C0.33 0.99 0.66 1.98 1 3 C-0.08203125 4.65625 -0.08203125 4.65625 -1.8125 6.5 C-2.45316406 7.19222656 -3.09382813 7.88445312 -3.75390625 8.59765625 C-4.86572266 9.78681641 -4.86572266 9.78681641 -6 11 C-6.85464844 11.96808594 -7.70929688 12.93617188 -8.58984375 13.93359375 C-9.47635767 14.93507719 -10.36307493 15.93638067 -11.25 16.9375 C-12.49523437 18.34322266 -12.49523437 18.34322266 -13.765625 19.77734375 C-16 22 -16 22 -19 23 C-17.50510576 18.08427416 -14.66009321 15.11955907 -11.1875 11.5 C-10.66607422 10.94441406 -10.14464844 10.38882812 -9.60742188 9.81640625 C-6.46550935 6.48229184 -3.25429791 3.22422122 0 0 Z " fill="#54D4E6" transform="translate(98,334)"/>
<path d="M0 0 C7.49817049 0.15302389 11.91255089 3.84711363 17.02734375 9.0703125 C21.77898649 14.33695946 21.77898649 14.33695946 23 18 C18.98587091 16.66195697 18.26994046 14.47584633 16 11 C15.01 10.34 14.02 9.68 13 9 C12.5875 8.525625 12.175 8.05125 11.75 7.5625 C9.14237327 5.23426185 6.24236923 4.28471234 3 3 C3.165 3.763125 3.33 4.52625 3.5 5.3125 C4 8 4 8 4 11 C1.22355795 8.67137119 0.09655054 7.37877519 -0.8125 3.8125 C-0.874375 2.884375 -0.93625 1.95625 -1 1 C-0.67 0.67 -0.34 0.34 0 0 Z " fill="#55D4E6" transform="translate(376,719)"/>
<path d="M0 0 C0.99 0 1.98 0 3 0 C3 4.95 3 9.9 3 15 C4.32 15 5.64 15 7 15 C7 17.64 7 20.28 7 23 C6.67 22.01 6.34 21.02 6 20 C4.68 20.33 3.36 20.66 2 21 C-0.06723714 17.89914429 -0.24497423 17.27068319 -0.1953125 13.76953125 C-0.18886719 12.96708984 -0.18242188 12.16464844 -0.17578125 11.33789062 C-0.15902344 10.50451172 -0.14226562 9.67113281 -0.125 8.8125 C-0.11597656 7.96751953 -0.10695313 7.12253906 -0.09765625 6.25195312 C-0.07410703 4.16784757 -0.03823647 2.08388783 0 0 Z " fill="#0B111C" transform="translate(1218,839)"/>
<path d="M0 0 C0.495 1.485 0.495 1.485 1 3 C-0.02996094 2.74605469 -1.05992187 2.49210937 -2.12109375 2.23046875 C-12.35730746 -0.25559002 -22.60816424 -2.2832011 -33 -4 C-33 -4.33 -33 -4.66 -33 -5 C-22.86983856 -7.27411787 -9.34045178 -4.48341685 0 0 Z " fill="#1FB9CE" transform="translate(361,452)"/>
<path d="M0 0 C0.33 0 0.66 0 1 0 C1 2.31 1 4.62 1 7 C7.6 7.33 14.2 7.66 21 8 C21.33 8.99 21.66 9.98 22 11 C14.41 11 6.82 11 -1 11 C-0.67 7.37 -0.34 3.74 0 0 Z " fill="#13C2D9" transform="translate(917,398)"/>
<path d="M0 0 C4 2 4 2 6 4 C6.45375 3.34 6.9075 2.68 7.375 2 C7.91125 1.34 8.4475 0.68 9 0 C9.66 0 10.32 0 11 0 C11 3.63 11 7.26 11 11 C10.34 11 9.68 11 9 11 C8.67 9.35 8.34 7.7 8 6 C6.68 6 5.36 6 4 6 C3.67 5.67 3.34 5.34 3 5 C2.67 6.98 2.34 8.96 2 11 C1.34 11 0.68 11 0 11 C0 7.37 0 3.74 0 0 Z " fill="#A6A9AC" transform="translate(88,70)"/>
<path d="M0 0 C3.74525799 3.74525799 3.68909949 7.98270909 4 13 C2.70391053 12.06862408 1.41328368 11.1296434 0.125 10.1875 C-0.59429688 9.66542969 -1.31359375 9.14335938 -2.0546875 8.60546875 C-4 7 -4 7 -6 4 C-4.02 2.68 -2.04 1.36 0 0 Z " fill="#E7E8E9" transform="translate(914,896)"/>
<path d="M0 0 C0.66 0 1.32 0 2 0 C3.38938077 1.96147874 4.7260411 3.96166576 6 6 C6.33 4.02 6.66 2.04 7 0 C7.66 0 8.32 0 9 0 C9 3.96 9 7.92 9 12 C8.34 12 7.68 12 7 12 C5.61061923 10.03852126 4.2739589 8.03833424 3 6 C2.67 7.98 2.34 9.96 2 12 C1.34 12 0.68 12 0 12 C0 8.04 0 4.08 0 0 Z " fill="#ABAEB1" transform="translate(946,617)"/>
<path d="M0 0 C0.66 0 1.32 0 2 0 C2 3.63 2 7.26 2 11 C1.34 11 0.68 11 0 11 C-0.33 9.35 -0.66 7.7 -1 6 C-2.98 6.99 -2.98 6.99 -5 8 C-5.33 7.34 -5.66 6.68 -6 6 C-6.33 7.65 -6.66 9.3 -7 11 C-7.66 11 -8.32 11 -9 11 C-9 7.7 -9 4.4 -9 1 C-5 3 -5 3 -4 5 C-3.38125 4.175 -2.7625 3.35 -2.125 2.5 C-1.42375 1.675 -0.7225 0.85 0 0 Z " fill="#A9ABB1" transform="translate(853,617)"/>
<path d="M0 0 C0.66 0 1.32 0 2 0 C3.38232443 1.62626404 4.71937515 3.2925002 6 5 C6.45375 4.175 6.9075 3.35 7.375 2.5 C7.91125 1.675 8.4475 0.85 9 0 C9.66 0 10.32 0 11 0 C11 3.63 11 7.26 11 11 C10.34 11 9.68 11 9 11 C8.67 9.35 8.34 7.7 8 6 C7.01 6.66 6.02 7.32 5 8 C4.34 7.34 3.68 6.68 3 6 C2.67 7.65 2.34 9.3 2 11 C1.34 11 0.68 11 0 11 C0 7.37 0 3.74 0 0 Z " fill="#ABACB2" transform="translate(730,617)"/>
<path d="M0 0 C1.65 0 3.3 0 5 0 C5.66 0.66 6.32 1.32 7 2 C6.70131344 4.00546689 6.36628677 6.00577205 6 8 C6.33 8.99 6.66 9.98 7 11 C5 11 5 11 2.875 9 C2.25625 8.34 1.6375 7.68 1 7 C0.67 8.32 0.34 9.64 0 11 C0 7.37 0 3.74 0 0 Z " fill="#BBBCBF" transform="translate(817,617)"/>
<path d="M0 0 C2.33301986 0.03824623 4.66711508 0.04574284 7 0 C7.33 0.99 7.66 1.98 8 3 C-2.23 2.34 -12.46 1.68 -23 1 C-23 0.67 -23 0.34 -23 0 C-15.15285845 -0.90049165 -7.79512217 -1.59899942 0 0 Z " fill="#1CC2D5" transform="translate(362,942)"/>
<path d="M0 0 C1.65 0 3.3 0 5 0 C5.66 0.66 6.32 1.32 7 2 C6.70131344 4.00546689 6.36628677 6.00577205 6 8 C6.33 8.99 6.66 9.98 7 11 C5 11 5 11 2.875 9 C2.25625 8.34 1.6375 7.68 1 7 C0.67 8.32 0.34 9.64 0 11 C0 7.37 0 3.74 0 0 Z " fill="#C9C7CC" transform="translate(901,617)"/>
<path d="M0 0 C1.99954746 -0.04254356 4.00041636 -0.04080783 6 0 C7 1 7 1 7.0625 3.5625 C7.041875 4.366875 7.02125 5.17125 7 6 C6.34 6 5.68 6 5 6 C5.66 7.65 6.32 9.3 7 11 C6.01 10.34 5.02 9.68 4 9 C4 8.34 4 7.68 4 7 C3.01 7 2.02 7 1 7 C0.67 8.32 0.34 9.64 0 11 C0 7.37 0 3.74 0 0 Z " fill="#C0BFC0" transform="translate(70,70)"/>
<path d="M0 0 C1.98 0 3.96 0 6 0 C6.87867729 3.73437848 7.08912219 7.16774573 7 11 C6.566875 10.525625 6.13375 10.05125 5.6875 9.5625 C3.97690387 7.76313043 3.97690387 7.76313043 1 7 C0.67 8.32 0.34 9.64 0 11 C0 7.37 0 3.74 0 0 Z " fill="#B9B8BB" transform="translate(117,70)"/>
<path d="M0 0 C0.66 0 1.32 0 2 0 C2.6708712 1.6232687 3.33657029 3.24867578 4 4.875 C4.556875 6.23238281 4.556875 6.23238281 5.125 7.6171875 C6 10 6 10 6 12 C5.34 12 4.68 12 4 12 C3.67 11.34 3.34 10.68 3 10 C0.47266765 9.34444881 0.47266765 9.34444881 -2 9 C-2 9.66 -2 10.32 -2 11 C-2.66 11 -3.32 11 -4 11 C-3.5247412 9.35303396 -3.04468109 7.70745272 -2.5625 6.0625 C-2.29566406 5.14597656 -2.02882813 4.22945312 -1.75390625 3.28515625 C-1 1 -1 1 0 0 Z " fill="#7E7F84" transform="translate(122,617)"/>
<path d="M0 0 C1.32 0 2.64 0 4 0 C3.53765575 4.97020071 2.19373595 7.24266358 -1 11 C-4.24659904 16.17050958 -4.65849571 21.04133888 -5 27 C-6.9451 24.08235 -7.45276317 22.37462715 -8 19 C-7.34 19 -6.68 19 -6 19 C-5.9071875 17.7934375 -5.9071875 17.7934375 -5.8125 16.5625 C-4.73463007 11.8364549 -2.48408581 8.12486573 0 4 C0.66 4 1.32 4 2 4 C2 3.01 2 2.02 2 1 C1.34 0.67 0.68 0.34 0 0 Z " fill="#5BD9E7" transform="translate(306,720)"/>
<path d="M0 0 C2.31 0 4.62 0 7 0 C7 0.66 7 1.32 7 2 C5.35 2 3.7 2 2 2 C2 2.99 2 3.98 2 5 C3.65 5 5.3 5 7 5 C7 5.66 7 6.32 7 7 C5.35 7 3.7 7 2 7 C2 7.99 2 8.98 2 10 C3.65 10 5.3 10 7 10 C7 10.66 7 11.32 7 12 C4.69 12 2.38 12 0 12 C0 8.04 0 4.08 0 0 Z " fill="#9E9FA2" transform="translate(170,617)"/>
<path d="M0 0 C2.31 0 4.62 0 7 0 C7 0.66 7 1.32 7 2 C5.35 2 3.7 2 2 2 C2 2.99 2 3.98 2 5 C3.65 5 5.3 5 7 5 C7 5.66 7 6.32 7 7 C5.35 7 3.7 7 2 7 C2 7.99 2 8.98 2 10 C3.65 10 5.3 10 7 10 C7 10.66 7 11.32 7 12 C5.00045254 12.04254356 2.99958364 12.04080783 1 12 C0 11 0 11 -0.09765625 8.49609375 C-0.08605469 7.48675781 -0.07445312 6.47742188 -0.0625 5.4375 C-0.05347656 4.42558594 -0.04445313 3.41367187 -0.03515625 2.37109375 C-0.02355469 1.58863281 -0.01195312 0.80617188 0 0 Z " fill="#9C9DA1" transform="translate(889,617)"/>
<path d="M0 0 C0.99 0.33 1.98 0.66 3 1 C3.94921875 3.28515625 3.94921875 3.28515625 4.6875 6.0625 C5.06455078 7.44115234 5.06455078 7.44115234 5.44921875 8.84765625 C5.63097656 9.55792969 5.81273438 10.26820312 6 11 C5.34 11 4.68 11 4 11 C3.67 10.34 3.34 9.68 3 9 C1.68 9 0.36 9 -1 9 C-1.33 9.66 -1.66 10.32 -2 11 C-2.66 11 -3.32 11 -4 11 C-3.5247412 9.35303396 -3.04468109 7.70745272 -2.5625 6.0625 C-2.29566406 5.14597656 -2.02882813 4.22945313 -1.75390625 3.28515625 C-1 1 -1 1 0 0 Z " fill="#828488" transform="translate(107,70)"/>
<path d="M0 0 C7.62514317 0.14387063 13.09344808 3.24569283 19 8 C19.33 8.99 19.66 9.98 20 11 C22.01508358 11.73323796 22.01508358 11.73323796 24 12 C23.01 12.66 22.02 13.32 21 14 C20.13375 13.154375 19.2675 12.30875 18.375 11.4375 C12.98164594 6.75879327 6.41380809 4.00675053 0 1 C0 0.67 0 0.34 0 0 Z " fill="#10C9E2" transform="translate(421,955)"/>
<path d="M0 0 C0.99 0.33 1.98 0.66 3 1 C-6.02327988 8.17537506 -6.02327988 8.17537506 -11 11 C-12.03125 11.721875 -13.0625 12.44375 -14.125 13.1875 C-17 15 -17 15 -20 15 C-13.93979213 9.29627495 -7.3641415 3.92754213 0 0 Z " fill="#5CD8E8" transform="translate(171,817)"/>
<path d="M0 0 C2.625 0.375 2.625 0.375 5 1 C5.625 3.375 5.625 3.375 6 6 C5.34 6.66 4.68 7.32 4 8 C1.375 7.625 1.375 7.625 -1 7 C-1.625 4.625 -1.625 4.625 -2 2 C-1.34 1.34 -0.68 0.68 0 0 Z " fill="#11141A" transform="translate(832,619)"/>
<path d="M0 0 C2.625 0.375 2.625 0.375 5 1 C5.625 3.375 5.625 3.375 6 6 C5.34 6.66 4.68 7.32 4 8 C1.375 7.625 1.375 7.625 -1 7 C-1.625 4.625 -1.625 4.625 -2 2 C-1.34 1.34 -0.68 0.68 0 0 Z " fill="#0B1018" transform="translate(211,619)"/>
<path d="M0 0 C1.99954746 -0.04254356 4.00041636 -0.04080783 6 0 C7 1 7 1 7.125 3.5 C7 6 7 6 6 7 C4.33382885 7.04063832 2.66611905 7.042721 1 7 C0.67 8.32 0.34 9.64 0 11 C0 7.37 0 3.74 0 0 Z " fill="#C3C1C3" transform="translate(210,70)"/>
<path d="M0 0 C1.99954746 -0.04254356 4.00041636 -0.04080783 6 0 C7 1 7 1 7.125 3.5 C7 6 7 6 6 7 C4.33382885 7.04063832 2.66611905 7.042721 1 7 C0.67 8.32 0.34 9.64 0 11 C0 7.37 0 3.74 0 0 Z " fill="#C1C0C3" transform="translate(58,70)"/>
<path d="M0 0 C2.9375 0.875 2.9375 0.875 4.9375 3.875 C4.75 6.9375 4.75 6.9375 3.9375 9.875 C0.9375 11.875 0.9375 11.875 -1.625 11.625 C-4.0625 10.875 -4.0625 10.875 -6.0625 8.875 C-6.39552312 5.7445827 -6.53921956 3.69601702 -4.9375 0.9375 C-3.0625 -0.125 -3.0625 -0.125 0 0 Z M-3.0625 1.875 C-3.7225 2.535 -4.3825 3.195 -5.0625 3.875 C-4.77266731 7.18183466 -4.77266731 7.18183466 -3.0625 9.875 C-0.5625 10.04166667 -0.5625 10.04166667 1.9375 9.875 C3.20753323 8.82189723 3.20753323 8.82189723 3.125 6.4375 C3.20589983 3.70765325 3.20589983 3.70765325 0.9375 1.875 C-0.3825 1.875 -1.7025 1.875 -3.0625 1.875 Z " fill="#AFB1B6" transform="translate(937.0625,617.125)"/>
<path d="M0 0 C0.66 0 1.32 0 2 0 C2 1.32 2 2.64 2 4 C3.65 4 5.3 4 7 4 C7 2.68 7 1.36 7 0 C7.66 0 8.32 0 9 0 C9 3.3 9 6.6 9 10 C8.34 10 7.68 10 7 10 C7 8.68 7 7.36 7 6 C5.35 6 3.7 6 2 6 C2 7.32 2 8.64 2 10 C1.34 10 0.68 10 0 10 C0 6.7 0 3.4 0 0 Z " fill="#A4A5A9" transform="translate(803,618)"/>
<path d="M0 0 C0.99 0.33 1.98 0.66 3 1 C3.94921875 3.06640625 3.94921875 3.06640625 4.6875 5.5625 C5.06455078 6.80193359 5.06455078 6.80193359 5.44921875 8.06640625 C5.63097656 8.70449219 5.81273438 9.34257813 6 10 C5.34 10 4.68 10 4 10 C4 9.34 4 8.68 4 8 C1.36 8.66 -1.28 9.32 -4 10 C-2.68 6.7 -1.36 3.4 0 0 Z " fill="#939397" transform="translate(82,618)"/>
<path d="M0 0 C0.66 0 1.32 0 2 0 C2 2.31 2 4.62 2 7 C7.91260345 7.25706972 13.23918159 6.2982126 19 5 C15.21613292 8.78386708 10.35266013 9.89091451 5.125 10.3125 C2 10 2 10 0 8 C-0.26991906 5.31160615 -0.08737357 2.70858064 0 0 Z " fill="#56DBE9" transform="translate(128,859)"/>
<path d="M0 0 C5 5 5 5 6 7 C5.01 7 4.02 7 3 7 C3 6.34 3 5.68 3 5 C2.34 5 1.68 5 1 5 C1 14.9 1 24.8 1 35 C0.67 35 0.34 35 0 35 C0 23.45 0 11.9 0 0 Z " fill="#313335" transform="translate(1174,833)"/>
<path d="M0 0 C0.66 0 1.32 0 2 0 C2 2.97 2 5.94 2 9 C3.32 9 4.64 9 6 9 C6 6.03 6 3.06 6 0 C6.66 0 7.32 0 8 0 C8.02688151 1.64574566 8.04634123 3.29161413 8.0625 4.9375 C8.07410156 5.85402344 8.08570313 6.77054687 8.09765625 7.71484375 C8 10 8 10 7 11 C4.5625 11.1875 4.5625 11.1875 2 11 C0 9 0 9 -0.1953125 6.8359375 C-0.17210937 6.02382812 -0.14890625 5.21171875 -0.125 4.375 C-0.10695312 3.55773437 -0.08890625 2.74046875 -0.0703125 1.8984375 C-0.04710937 1.27195312 -0.02390625 0.64546875 0 0 Z " fill="#98989C" transform="translate(197,70)"/>
<path d="M0 0 C0.66 0 1.32 0 2 0 C3.32 2.31 4.64 4.62 6 7 C6.33 5.02 6.66 3.04 7 1 C7.33 1 7.66 1 8 1 C8 4.3 8 7.6 8 11 C7.34 11 6.68 11 6 11 C4.375 8.5 4.375 8.5 3 6 C2.67 7.65 2.34 9.3 2 11 C1.34 11 0.68 11 0 11 C0 7.37 0 3.74 0 0 Z " fill="#D2D3D6" transform="translate(223,617)"/>
<path d="M0 0 C4.5 2.25 4.5 2.25 6 6 C6.33 4.02 6.66 2.04 7 0 C7.33 0 7.66 0 8 0 C8 3.3 8 6.6 8 10 C7.34 10 6.68 10 6 10 C4.375 8 4.375 8 3 6 C2.67 7.32 2.34 8.64 2 10 C1.34 10 0.68 10 0 10 C0 6.7 0 3.4 0 0 Z " fill="#AEAFB2" transform="translate(92,618)"/>
<path d="M0 0 C-0.68707031 0.44730469 -1.37414062 0.89460937 -2.08203125 1.35546875 C-2.98308594 1.96003906 -3.88414062 2.56460938 -4.8125 3.1875 C-6.15248047 4.07501953 -6.15248047 4.07501953 -7.51953125 4.98046875 C-10.13160532 7.10714953 -11.31010815 9.13111383 -13 12 C-15.6875 12.3125 -15.6875 12.3125 -18 12 C-6.85714286 -2.28571429 -6.85714286 -2.28571429 0 0 Z " fill="#5ACFE0" transform="translate(254,223)"/>
<path d="M0 0 C0.66 0 1.32 0 2 0 C3.625 2 3.625 2 5 4 C5.33 2.68 5.66 1.36 6 0 C6.66 0 7.32 0 8 0 C8 3.3 8 6.6 8 10 C4.26360784 8.75453595 3.81243487 7.36595047 2 4 C1.67 5.98 1.34 7.96 1 10 C0.67 10 0.34 10 0 10 C0 6.7 0 3.4 0 0 Z " fill="#BBBCBE" transform="translate(761,618)"/>
<path d="M0 0 C4.875 0.875 4.875 0.875 6 2 C6.125 4.5 6.125 4.5 6 7 C5 8 5 8 2.4375 8.0625 C1.633125 8.041875 0.82875 8.02125 0 8 C0 5.36 0 2.72 0 0 Z " fill="#111722" transform="translate(107,619)"/>
<path d="M0 0 C0.33 0 0.66 0 1 0 C1 1.98 1 3.96 1 6 C0.01 6 -0.98 6 -2 6 C-3.52012037 8.25427272 -3.52012037 8.25427272 -5 11 C-6.31037934 12.68477344 -7.63823078 14.35648543 -9 16 C-9.99 15.67 -10.98 15.34 -12 15 C-10.02573301 12.49609493 -8.04479301 9.99755419 -6.0625 7.5 C-5.49853516 6.78457031 -4.93457031 6.06914062 -4.35351562 5.33203125 C-3.54624023 4.31689453 -3.54624023 4.31689453 -2.72265625 3.28125 C-2.22515869 2.65283203 -1.72766113 2.02441406 -1.21508789 1.37695312 C-0.81410889 0.92255859 -0.41312988 0.46816406 0 0 Z " fill="#041B24" transform="translate(1012,334)"/>
<path d="M0 0 C0.66 0 1.32 0 2 0 C2.33 0.99 2.66 1.98 3 3 C3.99 2.01 4.98 1.02 6 0 C6.66 0.33 7.32 0.66 8 1 C7.484375 1.4125 6.96875 1.825 6.4375 2.25 C4.75226084 3.88290126 4.75226084 3.88290126 5.1875 6 C6.02659892 8.25737382 6.02659892 8.25737382 8 11 C4.125 9.125 4.125 9.125 3 8 C2.67 8.99 2.34 9.98 2 11 C1.34 11 0.68 11 0 11 C0 7.37 0 3.74 0 0 Z " fill="#ACADB0" transform="translate(185,70)"/>
<path d="M0 0 C0 2.74188039 -0.21119555 5.33891358 -0.5 8.0625 C-0.87315918 11.5249099 -0.87315918 11.5249099 -1 15 C-0.34 15 0.32 15 1 15 C1 15.66 1 16.32 1 17 C-0.875 16.6875 -0.875 16.6875 -3 16 C-5.3765323 12.43520155 -5.565955 11.20423715 -5 7 C-3.54850926 4.4813854 -1.85247773 2.23620526 0 0 Z " fill="#171A20" transform="translate(844,773)"/>
<path d="M0 0 C2.4375 0.75 2.4375 0.75 4.4375 1.75 C4.4375 2.41 4.4375 3.07 4.4375 3.75 C2.1275 3.42 -0.1825 3.09 -2.5625 2.75 C-2.8925 4.4 -3.2225 6.05 -3.5625 7.75 C-0.27553767 8.54953138 1.14773192 8.84658936 4.4375 7.75 C4.1075 8.74 3.7775 9.73 3.4375 10.75 C-1.98715753 12.0760274 -1.98715753 12.0760274 -4.4375 10.6875 C-6.06183741 7.89003001 -5.95954314 5.92634515 -5.5625 2.75 C-3.87827429 0.00205279 -3.23156906 -0.31527503 0 0 Z " fill="#A5A5A9" transform="translate(794.5625,617.25)"/>
<path d="M0 0 C0 0.99 0 1.98 0 3 C-1.32 2.67 -2.64 2.34 -4 2 C-1.525 3.98 -1.525 3.98 1 6 C0.67 7.32 0.34 8.64 0 10 C-1.8125 10.625 -1.8125 10.625 -4 11 C-4.99 10.34 -5.98 9.68 -7 9 C-7 8.34 -7 7.68 -7 7 C-4.03 7.495 -4.03 7.495 -1 8 C-1.825 7.4225 -2.65 6.845 -3.5 6.25 C-4.325 5.5075 -5.15 4.765 -6 4 C-6 2.68 -6 1.36 -6 0 C-3.50907189 -1.24546405 -2.58919267 -0.7767578 0 0 Z " fill="#B3B3B4" transform="translate(919,618)"/>
<path d="M0 0 C2.5 0.3125 2.5 0.3125 5 1 C5.33 1.66 5.66 2.32 6 3 C3.03 2.505 3.03 2.505 0 2 C1.93254772 4.0245738 3.63158688 5.42105792 6 7 C5.67 8.32 5.34 9.64 5 11 C3.1875 11.625 3.1875 11.625 1 12 C0.01 11.34 -0.98 10.68 -2 10 C-2 9.34 -2 8.68 -2 8 C-0.02 8.66 1.96 9.32 4 10 C4 9.01 4 8.02 4 7 C2.68 6.67 1.36 6.34 0 6 C-0.38218767 4.34385343 -0.71395102 2.67542976 -1 1 C-0.67 0.67 -0.34 0.34 0 0 Z " fill="#B3B2B4" transform="translate(59,617)"/>
<path d="M0 0 C1.1446875 0.2784375 1.1446875 0.2784375 2.3125 0.5625 C5.08967375 1.22819173 5.08967375 1.22819173 8 0 C8 2.64 8 5.28 8 8 C6.35 8.66 4.7 9.32 3 10 C3.33 8.35 3.66 6.7 4 5 C2.35 4.01 0.7 3.02 -1 2 C-0.67 1.34 -0.34 0.68 0 0 Z " fill="#121721" transform="translate(915,619)"/>
<path d="M0 0 C5.94739776 5.58694941 12.1195957 11.85158137 14 20 C13.01 19.67 12.02 19.34 11 19 C10.06533049 17.09727993 9.13660158 15.1912128 8.25 13.265625 C6.43702085 9.97960029 3.98572125 7.44949701 1.390625 4.76171875 C0 3 0 3 0 0 Z " fill="#19C2DB" transform="translate(483,339)"/>
<path d="M0 0 C2.125 0.375 2.125 0.375 4 1 C0.78840931 3.52893373 -2.58694674 5.58214369 -6.125 7.625 C-7.17945313 8.23601563 -8.23390625 8.84703125 -9.3203125 9.4765625 C-10.86097074 10.35244692 -12.41486876 11.20743438 -14 12 C-13.83984375 10.1953125 -13.83984375 10.1953125 -13 8 C-10.56640625 6.3671875 -10.56640625 6.3671875 -7.5625 4.875 C-3.47586569 2.86269925 -3.47586569 2.86269925 0 0 Z " fill="#1ACDE3" transform="translate(473,867)"/>
<path d="M0 0 C0.33 0 0.66 0 1 0 C1.19929239 3.45440136 1.28621844 6.23675084 0.0625 9.5 C-2.94058995 11.68406542 -5.27498632 11.04241854 -8.84375 10.5546875 C-11 10 -11 10 -14 8 C-11.18431914 7.27596778 -9.30524938 6.93299404 -6.4375 7.5625 C-3.54137683 8.08231698 -2.44300601 7.53818897 0 6 C0 4.02 0 2.04 0 0 Z " fill="#13B1C5" transform="translate(497,359)"/>
<path d="M0 0 C4.75118505 4.31925913 8.91712305 9.3512503 12 15 C11.67 15.99 11.34 16.98 11 18 C8 14.25 8 14.25 8 12 C7.34 12 6.68 12 6 12 C5.731875 11.21625 5.46375 10.4325 5.1875 9.625 C4.15185568 6.71885077 4.15185568 6.71885077 1 5 C0.3125 2.375 0.3125 2.375 0 0 Z " fill="#10C3DE" transform="translate(432,935)"/>
<path d="M0 0 C0.66 0.33 1.32 0.66 2 1 C1.83560987 7.72505081 0.78944649 11.21055351 -4 16 C-4.99 15.67 -5.98 15.34 -7 15 C-6.195625 13.989375 -5.39125 12.97875 -4.5625 11.9375 C-1.98101721 8.36705478 -1.35347808 5.41847599 -1 1 C-0.67 0.67 -0.34 0.34 0 0 Z " fill="#55CFE2" transform="translate(282,746)"/>
<path d="M0 0 C-5.12265945 3.4151063 -10.0895506 5.46328316 -16 7 C-16.66 6.34 -17.32 5.68 -18 5 C-15.75564555 3.96483652 -13.50593133 2.94685023 -11.25 1.9375 C-10.29867187 1.49567383 -10.29867187 1.49567383 -9.328125 1.04492188 C-3.48702331 -1.54098252 -3.48702331 -1.54098252 0 0 Z " fill="#54CBDD" transform="translate(218,796)"/>
<path d="M0 0 C3.73639216 1.24546405 4.18756513 2.63404953 6 6 C6.33 4.02 6.66 2.04 7 0 C7.33 0 7.66 0 8 0 C8 3.3 8 6.6 8 10 C7.34 10 6.68 10 6 10 C4.61061923 8.03852126 3.2739589 6.03833424 2 4 C1.67 5.98 1.34 7.96 1 10 C0.67 10 0.34 10 0 10 C0 6.7 0 3.4 0 0 Z " fill="#CDCDCE" transform="translate(157,618)"/>
<path d="M0 0 C0.33 0 0.66 0 1 0 C1 4.95 1 9.9 1 15 C1.66 14.67 2.32 14.34 3 14 C4.87379605 13.92966231 6.75001102 13.9156978 8.625 13.9375 C10.12933594 13.95103516 10.12933594 13.95103516 11.6640625 13.96484375 C12.43492188 13.97644531 13.20578125 13.98804688 14 14 C14 14.33 14 14.66 14 15 C13.32453125 15.03738281 12.6490625 15.07476563 11.953125 15.11328125 C11.06109375 15.17902344 10.1690625 15.24476563 9.25 15.3125 C8.36828125 15.37050781 7.4865625 15.42851563 6.578125 15.48828125 C3.53306796 15.89939724 3.53306796 15.89939724 0 19 C0 12.73 0 6.46 0 0 Z " fill="#45494F" transform="translate(1061,814)"/>
<path d="M0 0 C0.33 0 0.66 0 1 0 C1.66 3.63 2.32 7.26 3 11 C-0.74281699 8.61820737 -3.97727468 6.25524265 -7 3 C-4.83125748 3.50603992 -3.00032373 3.99983813 -1 5 C-1.33 4.01 -1.66 3.02 -2 2 C-1.34 2 -0.68 2 0 2 C0 1.34 0 0.68 0 0 Z " fill="#0CC9E0" transform="translate(394,465)"/>
<path d="M0 0 C7.24579719 -0.67090715 11.75838097 1.41874318 18 5 C17.34 5.66 16.68 6.32 16 7 C10.72 5.02 5.44 3.04 0 1 C0 0.67 0 0.34 0 0 Z " fill="#51C9D8" transform="translate(144,367)"/>
<path d="M0 0 C-2.22907395 0.47959778 -4.45826297 0.9586608 -6.6875 1.4375 C-7.92886719 1.70433594 -9.17023438 1.97117187 -10.44921875 2.24609375 C-13.29612015 2.85055136 -16.14455626 3.43764684 -19 4 C-18.67 3.01 -18.34 2.02 -18 1 C-14.98046875 -0.01953125 -14.98046875 -0.01953125 -11.1875 -0.8125 C-9.32158203 -1.22435547 -9.32158203 -1.22435547 -7.41796875 -1.64453125 C-4.0120398 -1.99874786 -2.75704762 -1.90979369 0 0 Z " fill="#21C8DD" transform="translate(450,364)"/>
<path d="M0 0 C0.33 0 0.66 0 1 0 C1 1.65 1 3.3 1 5 C-0.58086048 5.36504603 -2.16483907 5.71660506 -3.75 6.0625 C-4.63171875 6.25972656 -5.5134375 6.45695313 -6.421875 6.66015625 C-9.04706587 7.00620414 -10.56454179 7.01124461 -13 6 C-13.66 5.01 -14.32 4.02 -15 3 C-14.01 2.34 -13.02 1.68 -12 1 C-12 1.99 -12 2.98 -12 4 C-9.03 4.33 -6.06 4.66 -3 5 C-2.34 3.68 -1.68 2.36 -1 1 C-0.67 0.67 -0.34 0.34 0 0 Z " fill="#363A41" transform="translate(1359,839)"/>
<path d="M0 0 C-0.56589844 0.12117188 -1.13179687 0.24234375 -1.71484375 0.3671875 C-2.44832031 0.53476562 -3.18179688 0.70234375 -3.9375 0.875 C-4.66839844 1.03742188 -5.39929688 1.19984375 -6.15234375 1.3671875 C-8.20700294 1.82961523 -8.20700294 1.82961523 -9 4 C-10.258125 4.04125 -11.51625 4.0825 -12.8125 4.125 C-13.52019531 4.14820313 -14.22789062 4.17140625 -14.95703125 4.1953125 C-17 4 -17 4 -20 2 C-17.41842632 1.46867611 -14.83538244 0.94965621 -12.25 0.4375 C-11.52039063 0.28603516 -10.79078125 0.13457031 -10.0390625 -0.02148438 C-6.33442927 -0.74557178 -3.60677678 -1.09817231 0 0 Z " fill="#C7C8CB" transform="translate(810,354)"/>
<path d="M0 0 C1.14726563 0.00515625 2.29453125 0.0103125 3.4765625 0.015625 C5.18972656 0.00789063 5.18972656 0.00789063 6.9375 0 C9.92163133 0.25051967 11.59096928 0.70732576 14.1015625 2.265625 C10.6996138 4.35913189 8.04883838 4.44504663 4.1015625 4.265625 C4.1015625 3.605625 4.1015625 2.945625 4.1015625 2.265625 C1.1315625 2.265625 -1.8384375 2.265625 -4.8984375 2.265625 C-2.8984375 0.265625 -2.8984375 0.265625 0 0 Z " fill="#C4C6CA" transform="translate(708.8984375,318.734375)"/>
<path d="M0 0 C0 0.99 0 1.98 0 3 C-5.37180176 5.62875405 -10.04492601 6.6083965 -16 7 C-13.19350765 5.1290051 -10.50039527 3.76982048 -7.4375 2.375 C-6.46683594 1.92898438 -5.49617187 1.48296875 -4.49609375 1.0234375 C-2 0 -2 0 0 0 Z " fill="#55C8D8" transform="translate(196,284)"/>
<path d="M0 0 C2.97 0 5.94 0 9 0 C8.67 2.64 8.34 5.28 8 8 C7.67 8 7.34 8 7 8 C7 6.02 7 4.04 7 2 C6.34 2 5.68 2 5 2 C5 4.97 5 7.94 5 11 C4.67 11 4.34 11 4 11 C4 8.03 4 5.06 4 2 C2.68 2 1.36 2 0 2 C0 1.34 0 0.68 0 0 Z " fill="#828488" transform="translate(68,617)"/>
<path d="M0 0 C-1.44781793 3.44428265 -3.27694609 5.36130962 -6.125 7.75 C-7.21167969 8.67039062 -7.21167969 8.67039062 -8.3203125 9.609375 C-8.87460937 10.06828125 -9.42890625 10.5271875 -10 11 C-10.33 10.34 -10.66 9.68 -11 9 C-4.25 0 -4.25 0 0 0 Z " fill="#16C4D9" transform="translate(438,900)"/>
<path d="M0 0 C-3.00577487 2.00384991 -5.84977264 3.26119742 -9.1875 4.625 C-10.27417969 5.07101562 -11.36085937 5.51703125 -12.48046875 5.9765625 C-13.72763672 6.48316406 -13.72763672 6.48316406 -15 7 C-15.66 6.34 -16.32 5.68 -17 5 C-14.73392948 3.96724659 -12.46318061 2.94866449 -10.1875 1.9375 C-9.22360352 1.49567383 -9.22360352 1.49567383 -8.24023438 1.04492188 C-3.33984375 -1.11328125 -3.33984375 -1.11328125 0 0 Z " fill="#57CADA" transform="translate(250,783)"/>
<path d="M0 0 C0.66 0 1.32 0 2 0 C3.25664978 2.90600261 4 4.79604584 4 8 C4.66 8 5.32 8 6 8 C6.185625 6.5459375 6.185625 6.5459375 6.375 5.0625 C6.58125 4.051875 6.7875 3.04125 7 2 C7.66 1.67 8.32 1.34 9 1 C8.34 3.97 7.68 6.94 7 10 C5.68 10 4.36 10 3 10 C2.01 6.7 1.02 3.4 0 0 Z " fill="#BBBDC0" transform="translate(876,617)"/>
<path d="M0 0 C3.3 0 6.6 0 10 0 C10 2.97 10 5.94 10 9 C9.01 9.495 9.01 9.495 8 10 C8 7.36 8 4.72 8 2 C7.05125 2.04125 6.1025 2.0825 5.125 2.125 C2 2 2 2 0 0 Z " fill="#22D4F0" transform="translate(1156,321)"/>
<path d="M0 0 C6.49870586 3.13730628 8.86291031 6.671965 12 13 C7.82556637 9.49925018 3.6854506 6.02049157 0 2 C0 1.34 0 0.68 0 0 Z " fill="#47D2E3" transform="translate(237,895)"/>
<path d="M0 0 C0.33 0.99 0.66 1.98 1 3 C2.32 3 3.64 3 5 3 C5 5.64 5 8.28 5 11 C4.67 10.01 4.34 9.02 4 8 C2.68 8.33 1.36 8.66 0 9 C0 6.03 0 3.06 0 0 Z " fill="#282C36" transform="translate(1220,851)"/>
<path d="M0 0 C0 3 0 3 -1 6 C-6.92476489 11.52978056 -6.92476489 11.52978056 -11 12 C-9.85996765 8.57990294 -8.77829802 7.71130558 -6.0625 5.4375 C-3.96656037 3.66869432 -1.94005112 1.94005112 0 0 Z " fill="#53CADC" transform="translate(272,764)"/>
<path d="M0 0 C5.12583611 -0.10251672 9.94997778 -0.03590199 15 1 C14.67 1.66 14.34 2.32 14 3 C9.1666528 3.08333357 4.76307437 2.95261487 0 2 C0 1.34 0 0.68 0 0 Z " fill="#26C2D3" transform="translate(280,441)"/>
<path d="M0 0 C1.65 0 3.3 0 5 0 C5 2.64 5 5.28 5 8 C2.36 8 -0.28 8 -3 8 C-3 7.67 -3 7.34 -3 7 C-1.35 7 0.3 7 2 7 C2 5.02 2 3.04 2 1 C1.34 0.67 0.68 0.34 0 0 Z " fill="#E2E4E5" transform="translate(1326,860)"/>
<path d="M0 0 C0.99 0.33 1.98 0.66 3 1 C2.67 1.61875 2.34 2.2375 2 2.875 C0.85806765 4.91018344 0.85806765 4.91018344 1 7 C-1.97 6.505 -1.97 6.505 -5 6 C-4.67 4.68 -4.34 3.36 -4 2 C-3.01 2.33 -2.02 2.66 -1 3 C-0.67 2.01 -0.34 1.02 0 0 Z " fill="#191E28" transform="translate(1103,839)"/>
<path d="M0 0 C0.66 0 1.32 0 2 0 C2 3.63 2 7.26 2 11 C1.34 11 0.68 11 0 11 C-0.33 9.35 -0.66 7.7 -1 6 C-1.99 6.495 -1.99 6.495 -3 7 C-2.38722388 4.03824877 -1.74627478 2.61941217 0 0 Z " fill="#9F9FA2" transform="translate(97,70)"/>
<path d="M0 0 C-0.33 0.99 -0.66 1.98 -1 3 C-2.093125 2.979375 -3.18625 2.95875 -4.3125 2.9375 C-7.94384191 2.81455548 -7.94384191 2.81455548 -11 4 C-8.36255031 -1.84006718 -6.04918208 -1.00819701 0 0 Z " fill="#1F232C" transform="translate(1073,838)"/>
<path d="M0 0 C2.77579761 2.77579761 2.86061387 5.30306937 3.625 9.125 C3.88539063 10.40632812 4.14578125 11.68765625 4.4140625 13.0078125 C4.60742188 13.99523437 4.80078125 14.98265625 5 16 C4.34 16.33 3.68 16.66 3 17 C2 13 1 9 0 5 C-0.21785156 4.23171875 -0.43570312 3.4634375 -0.66015625 2.671875 C-0.77230469 2.12015625 -0.88445312 1.5684375 -1 1 C-0.67 0.67 -0.34 0.34 0 0 Z " fill="#46CCDF" transform="translate(400,740)"/>
<path d="M0 0 C4.81033104 2.54664585 8.32442148 4.99027798 12 9 C7.71339196 9 6.99173931 8.65482381 3.75 6.1875 C3.04359375 5.66542969 2.3371875 5.14335937 1.609375 4.60546875 C0.81273437 3.81076172 0.81273437 3.81076172 0 3 C0 2.01 0 1.02 0 0 Z " fill="#21CCE4" transform="translate(362,425)"/>
<path d="M0 0 C1.72880982 -0.05449838 3.45812712 -0.09301688 5.1875 -0.125 C6.15042969 -0.14820313 7.11335938 -0.17140625 8.10546875 -0.1953125 C11.12812778 0.0086456 13.26769985 0.73125368 16 2 C16 2.66 16 3.32 16 4 C14.27073126 3.68806536 12.54158956 3.37542638 10.8125 3.0625 C9.84957031 2.88847656 8.88664062 2.71445312 7.89453125 2.53515625 C5.25760028 2.0476265 2.6280095 1.53328895 0 1 C0 0.67 0 0.34 0 0 Z " fill="#19D3E9" transform="translate(389,946)"/>
<path d="M0 0 C0.99 0 1.98 0 3 0 C4.97614897 2.78985737 5.10310462 4.83334677 4.75 8.125 C4 12 4 12 2 14 C1.34 13.67 0.68 13.34 0 13 C0.66 9.04 1.32 5.08 2 1 C1.34 0.67 0.68 0.34 0 0 Z " fill="#16B0CA" transform="translate(1347,370)"/>
<path d="M0 0 C3.35915158 1.43963639 5.71624938 3.12416589 8 6 C7.82246387 9.01811422 7.16264785 9.83735215 5 12 C4.71125 10.865625 4.4225 9.73125 4.125 8.5625 C3.75375 7.386875 3.3825 6.21125 3 5 C2.34 4.67 1.68 4.34 1 4 C0.375 1.9375 0.375 1.9375 0 0 Z " fill="#252930" transform="translate(803,339)"/>
<path d="M0 0 C3.90829085 0.5647301 5.89920223 2.42131971 8.75 5.0625 C9.54921875 5.79597656 10.3484375 6.52945312 11.171875 7.28515625 C11.77515625 7.85105469 12.3784375 8.41695313 13 9 C12.34 9.66 11.68 10.32 11 11 C7.33333333 7.33333333 3.66666667 3.66666667 0 0 Z " fill="#1EC4DB" transform="translate(470,329)"/>
<path d="M0 0 C0.66 0 1.32 0 2 0 C1.52517262 4.27344643 -0.99204637 6.13528225 -4 9 C-5.02813611 10.31175986 -6.04084432 11.6369893 -7 13 C-7.66 12.67 -8.32 12.34 -9 12 C-7.54927753 9.99406276 -6.09008971 7.99539826 -4.625 6 C-4.2125 5.42765625 -3.8 4.8553125 -3.375 4.265625 C-2.29828281 2.80684688 -1.15333422 1.39899024 0 0 Z " fill="#2CC5DE" transform="translate(1002,307)"/>
<path d="M0 0 C-1.7873962 1.33905267 -3.58004953 2.67109066 -5.375 4 C-6.37273437 4.7425 -7.37046875 5.485 -8.3984375 6.25 C-11 8 -11 8 -13 8 C-11.8004855 4.40145651 -10.72074777 3.81383185 -7.625 1.75 C-6.83351563 1.20859375 -6.04203125 0.6671875 -5.2265625 0.109375 C-3 -1 -3 -1 0 0 Z " fill="#19C8DE" transform="translate(427,912)"/>
<path d="M0 0 C0 0.66 0 1.32 0 2 C-5.94 1.67 -11.88 1.34 -18 1 C-18 0.67 -18 0.34 -18 0 C-11.74692761 -0.83288874 -6.23182639 -1.03863773 0 0 Z " fill="#26BACD" transform="translate(328,445)"/>
<path d="M0 0 C2.64 0 5.28 0 8 0 C8 2.97 8 5.94 8 9 C7.34 9 6.68 9 6 9 C5.938125 8.05125 5.87625 7.1025 5.8125 6.125 C5.544375 5.09375 5.27625 4.0625 5 3 C2.53744315 1.54708727 2.53744315 1.54708727 0 1 C0 0.67 0 0.34 0 0 Z " fill="#051C26" transform="translate(1341,371)"/>
<path d="M0 0 C3.44165927 4.22385456 5 7.50060584 5 13 C4.34 13 3.68 13 3 13 C-0.42857143 4.57142857 -0.42857143 4.57142857 0 0 Z " fill="#0FB9D4" transform="translate(444,952)"/>
<path d="M0 0 C-0.66 1.65 -1.32 3.3 -2 5 C-3.32 4.34 -4.64 3.68 -6 3 C-6.99 3.99 -7.98 4.98 -9 6 C-9.66 5.67 -10.32 5.34 -11 5 C-4.85714286 -0.71428571 -4.85714286 -0.71428571 0 0 Z " fill="#DADCDF" transform="translate(844,772)"/>
<path d="M0 0 C0 0.66 0 1.32 0 2 C-4.96284034 4.37113483 -9.45949887 6.43174347 -15 7 C-11.19791273 3.69383716 -5.16418515 0 0 0 Z " fill="#5DD0DF" transform="translate(161,298)"/>
<path d="M0 0 C0 0.66 0 1.32 0 2 C-0.66 2 -1.32 2 -2 2 C-2 2.66 -2 3.32 -2 4 C-4.64 4.99 -7.28 5.98 -10 7 C-10.66 6.34 -11.32 5.68 -12 5 C-10.37750059 4.16180842 -8.75191503 3.3295884 -7.125 2.5 C-6.22007812 2.0359375 -5.31515625 1.571875 -4.3828125 1.09375 C-2 0 -2 0 0 0 Z " fill="#E9E9EB" transform="translate(585,290)"/>
<path d="M0 0 C1.32 0 2.64 0 4 0 C4 1.65 4 3.3 4 5 C2.02 5 0.04 5 -2 5 C-1.125 1.125 -1.125 1.125 0 0 Z " fill="#06090D" transform="translate(160,74)"/>
<path d="M0 0 C1.32 0 2.64 0 4 0 C4 0.66 4 1.32 4 2 C7.63 2.66 11.26 3.32 15 4 C14.34 4.66 13.68 5.32 13 6 C8.19791609 5.56344692 3.53606243 3.57131574 -1 2 C-0.67 1.34 -0.34 0.68 0 0 Z " fill="#14CAE0" transform="translate(408,949)"/>
<path d="M0 0 C0.99 0 1.98 0 3 0 C3 3.3 3 6.6 3 10 C2.01 10.33 1.02 10.66 0 11 C-0.66 10.34 -1.32 9.68 -2 9 C-1.7578125 6.8359375 -1.7578125 6.8359375 -1.125 4.375 C-0.92132812 3.55773437 -0.71765625 2.74046875 -0.5078125 1.8984375 C-0.34023437 1.27195312 -0.17265625 0.64546875 0 0 Z " fill="#1B212E" transform="translate(1128,829)"/>
<path d="M0 0 C3.3 0 6.6 0 10 0 C10.66 1.32 11.32 2.64 12 4 C11.34 4.66 10.68 5.32 10 6 C9.67 5.01 9.34 4.02 9 3 C7.88625 3.061875 6.7725 3.12375 5.625 3.1875 C4.42875 3.125625 3.2325 3.06375 2 3 C1.34 2.01 0.68 1.02 0 0 Z " fill="#DCDDDF" transform="translate(1164,814)"/>
<path d="M0 0 C-3.55991828 2.96659857 -7.65222543 5.381348 -12 7 C-12.66 6.67 -13.32 6.34 -14 6 C-12.61447798 4.98576166 -11.21605712 3.98912998 -9.8125 3 C-9.03519531 2.443125 -8.25789063 1.88625 -7.45703125 1.3125 C-4.71663363 -0.151369 -3.05899163 -0.26080213 0 0 Z " fill="#5CC6D6" transform="translate(309,719)"/>
<path d="M0 0 C0.66 0 1.32 0 2 0 C1.773125 0.763125 1.54625 1.52625 1.3125 2.3125 C1.209375 3.199375 1.10625 4.08625 1 5 C2.33378575 6.8354799 2.33378575 6.8354799 4 8 C2.35 8 0.7 8 -1 8 C-1 8.66 -1 9.32 -1 10 C-1.66 10 -2.32 10 -3 10 C-2.01 6.7 -1.02 3.4 0 0 Z " fill="#A5A6AB" transform="translate(121,618)"/>
<path d="M0 0 C2.475 0.495 2.475 0.495 5 1 C5.33 2.32 5.66 3.64 6 5 C4.02 5 2.04 5 0 5 C0 3.35 0 1.7 0 0 Z " fill="#090C10" transform="translate(934,619)"/>
<path d="M0 0 C1.98 0.495 1.98 0.495 4 1 C4.125 3.375 4.125 3.375 4 6 C3.34 6.66 2.68 7.32 2 8 C1.01 8 0.02 8 -1 8 C-0.67 5.36 -0.34 2.72 0 0 Z " fill="#1B212B" transform="translate(884,617)"/>
<path d="M0 0 C0.99 0.33 1.98 0.66 3 1 C-0.12621626 4.39417765 -2.56541027 6.6062718 -7 8 C-7 7.34 -7 6.68 -7 6 C-6.34 6 -5.68 6 -5 6 C-4.67 5.01 -4.34 4.02 -4 3 C-2.125 1.25 -2.125 1.25 0 0 Z " fill="#E8E9EA" transform="translate(638,397)"/>
<path d="M0 0 C0.66 0.33 1.32 0.66 2 1 C-1.11016455 4.28788824 -4.01618925 6.83735988 -8 9 C-6.4169423 4.7257442 -3.49431596 2.73468206 0 0 Z " fill="#23CEE6" transform="translate(1312,324)"/>
<path d="M0 0 C1.7015625 0.2784375 1.7015625 0.2784375 3.4375 0.5625 C4.283125 0.706875 5.12875 0.85125 6 1 C6 1.33 6 1.66 6 2 C4.06280622 2.05406122 2.12518079 2.09282025 0.1875 2.125 C-0.89144531 2.14820313 -1.97039062 2.17140625 -3.08203125 2.1953125 C-6 2 -6 2 -9 0 C-5.91313398 -1.54343301 -3.34890414 -0.55815069 0 0 Z " fill="#1AD0E5" transform="translate(381,944)"/>
<path d="M0 0 C0.66 0.33 1.32 0.66 2 1 C-1.33562767 5.51290803 -3.33289301 7.68206814 -9 9 C-6.31941902 5.42589203 -3.57410797 2.68058098 0 0 Z " fill="#031E29" transform="translate(461,877)"/>
<path d="M0 0 C0.66 0.99 1.32 1.98 2 3 C1.3125 4.9375 1.3125 4.9375 0 7 C-2.625 7.75 -2.625 7.75 -5 8 C-1.125 1.125 -1.125 1.125 0 0 Z " fill="#22272E" transform="translate(1204,836)"/>
<path d="M0 0 C1.32 0.33 2.64 0.66 4 1 C3.34 1.66 2.68 2.32 2 3 C2.33 3.99 2.66 4.98 3 6 C3.99 6.33 4.98 6.66 6 7 C5.67 8.32 5.34 9.64 5 11 C0.07692308 5.70769231 0.07692308 5.70769231 -0.3125 2.125 C-0.209375 1.42375 -0.10625 0.7225 0 0 Z " fill="#68E0ED" transform="translate(323,221)"/>
<path d="M0 0 C1.67542976 0.28604898 3.34385343 0.61781233 5 1 C4.3125 2.9375 4.3125 2.9375 3 5 C0.375 5.75 0.375 5.75 -2 6 C-1.125 1.125 -1.125 1.125 0 0 Z " fill="#111318" transform="translate(792,619)"/>
<path d="M0 0 C1.32 0 2.64 0 4 0 C4 0.99 4 1.98 4 3 C0.66666667 6 0.66666667 6 -2 6 C-1.125 1.125 -1.125 1.125 0 0 Z " fill="#0D111A" transform="translate(777,619)"/>
<path d="M0 0 C-2 2 -2 2 -5.8125 2.1875 C-8.97270751 2.11266813 -11.92318996 1.76920251 -15 1 C-15 0.67 -15 0.34 -15 0 C-9.62374766 -0.84888195 -5.34629602 -1.0024305 0 0 Z " fill="#20B1C1" transform="translate(343,447)"/>
<path d="M0 0 C2.29013653 3.4352048 2.17842973 4.985331 2 9 C0.35 7.35 -1.3 5.7 -3 4 C-2.01 2.68 -1.02 1.36 0 0 Z " fill="#C8CACC" transform="translate(916,900)"/>
<path d="M0 0 C2 1 2 1 3 3 C-1.75 6 -1.75 6 -4 6 C-4 6.66 -4 7.32 -4 8 C-4.66 8 -5.32 8 -6 8 C-4.55746343 4.63408134 -2.66735273 2.48952921 0 0 Z " fill="#1D2127" transform="translate(1014,824)"/>
<path d="M0 0 C2 1 2 1 2.6875 2.625 C3.115033 5.87425079 2.55596842 8.78773804 2 12 C1.34 12 0.68 12 0 12 C0 8.04 0 4.08 0 0 Z " fill="#939498" transform="translate(946,617)"/>
<path d="M0 0 C0 0.66 0 1.32 0 2 C-6.45 4.23269231 -6.45 4.23269231 -9.234375 3.0546875 C-9.81703125 2.70664062 -10.3996875 2.35859375 -11 2 C-9.54494642 1.47007308 -8.08581873 0.9513211 -6.625 0.4375 C-5.81289063 0.14746094 -5.00078125 -0.14257812 -4.1640625 -0.44140625 C-2 -1 -2 -1 0 0 Z " fill="#EAEDEE" transform="translate(630,404)"/>
<path d="M0 0 C1.06671952 3.20015856 0.94845472 4.88544294 0.5625 8.1875 C0.46066406 9.08855469 0.35882813 9.98960937 0.25390625 10.91796875 C0.17011719 11.60503906 0.08632813 12.29210937 0 13 C-1.9451 10.08235 -2.45276317 8.37462715 -3 5 C-2.34 5 -1.68 5 -1 5 C-0.67 3.35 -0.34 1.7 0 0 Z " fill="#5DE4F5" transform="translate(301,734)"/>
<path d="M0 0 C1.98362069 2.91708924 1.9876191 4.12380904 1.625 7.75 C1.41875 8.8225 1.2125 9.895 1 11 C1.66 11.33 2.32 11.66 3 12 C2.01 12 1.02 12 0 12 C-0.19573608 10.56359829 -0.38127816 9.12580496 -0.5625 7.6875 C-0.66691406 6.88699219 -0.77132812 6.08648437 -0.87890625 5.26171875 C-1 3 -1 3 0 0 Z " fill="#194D57" transform="translate(250,237)"/>
<path d="M0 0 C-4.95 2.97 -4.95 2.97 -10 6 C-10 5.01 -10 4.02 -10 3 C-3.375 -1.125 -3.375 -1.125 0 0 Z " fill="#63DEED" transform="translate(254,223)"/>
<path d="M0 0 C1.98 0 3.96 0 6 0 C6.66 1.65 7.32 3.3 8 5 C7.34 5 6.68 5 6 5 C5.67 4.34 5.34 3.68 5 3 C3.68 3 2.36 3 1 3 C0.67 3.66 0.34 4.32 0 5 C-0.66 5 -1.32 5 -2 5 C-1.34 3.35 -0.68 1.7 0 0 Z " fill="#AFB1B3" transform="translate(105,76)"/>
<path d="M0 0 C1.98 0.99 1.98 0.99 4 2 C4.33 2.99 4.66 3.98 5 5 C4.34 5 3.68 5 3 5 C3 5.66 3 6.32 3 7 C2.34 7 1.68 7 1 7 C0.67 7.99 0.34 8.98 0 10 C0 6.7 0 3.4 0 0 Z " fill="#01050E" transform="translate(100,70)"/>
<path d="M0 0 C0.99 0.33 1.98 0.66 3 1 C-0.96 4.465 -0.96 4.465 -5 8 C-5.66 7.67 -6.32 7.34 -7 7 C-4.69 4.69 -2.38 2.38 0 0 Z " fill="#03212B" transform="translate(445,893)"/>
<path d="M0 0 C0.66 0.33 1.32 0.66 2 1 C-0.35277269 3.72426311 -2.62496331 4.8141763 -6 6 C-6.66 5.34 -7.32 4.68 -8 4 C-6.71349294 3.30289269 -5.42059335 2.61757124 -4.125 1.9375 C-3.40570313 1.55464844 -2.68640625 1.17179688 -1.9453125 0.77734375 C-1.30335938 0.52082031 -0.66140625 0.26429688 0 0 Z " fill="#55C5D5" transform="translate(198,802)"/>
<path d="M0 0 C2 1 2 1 2.6875 2.6875 C3.08443325 5.62480602 2.59080963 8.11159734 2 11 C1.34 11 0.68 11 0 11 C0 7.37 0 3.74 0 0 Z " fill="#9D9DA5" transform="translate(223,617)"/>
<path d="M0 0 C3.95820859 0.56545837 6.6659053 1.80902348 10 4 C9.67 4.99 9.34 5.98 9 7 C7.4972763 6.02501855 5.99788037 5.04490611 4.5 4.0625 C3.6646875 3.51722656 2.829375 2.97195313 1.96875 2.41015625 C1.3190625 1.94480469 0.669375 1.47945313 0 1 C0 0.67 0 0.34 0 0 Z " fill="#1CC9E3" transform="translate(377,461)"/>
<path d="M0 0 C4.87664009 -0.34833144 7.77050005 0.58314288 12 3 C12 3.66 12 4.32 12 5 C10.56068883 4.54738642 9.12361001 4.08767021 7.6875 3.625 C6.88699219 3.36976563 6.08648437 3.11453125 5.26171875 2.8515625 C3 2 3 2 0 0 Z " fill="#1FBCD1" transform="translate(363,455)"/>
<path d="M0 0 C0.66 0.33 1.32 0.66 2 1 C0.12050295 4.57104439 -1.17053157 6.54744301 -5 8 C-3.8141763 4.62496331 -2.72426311 2.35277269 0 0 Z " fill="#272A31" transform="translate(697,342)"/>
<path d="M0 0 C1.98 0.495 1.98 0.495 4 1 C3.67 2.32 3.34 3.64 3 5 C1.68 4.67 0.36 4.34 -1 4 C-0.67 2.68 -0.34 1.36 0 0 Z " fill="#313339" transform="translate(212,71)"/>
<path d="M0 0 C1.670625 0.061875 1.670625 0.061875 3.375 0.125 C3.705 1.115 4.035 2.105 4.375 3.125 C1.075 2.795 -2.225 2.465 -5.625 2.125 C-3.625 0.125 -3.625 0.125 0 0 Z " fill="#19CCE2" transform="translate(365.625,941.875)"/>
<path d="M0 0 C0.99 0.33 1.98 0.66 3 1 C2.67 2.32 2.34 3.64 2 5 C1.01 5 0.02 5 -1 5 C-1.33 6.32 -1.66 7.64 -2 9 C-1.125 2.25 -1.125 2.25 0 0 Z " fill="#C6C8CC" transform="translate(830,781)"/>
<path d="M0 0 C2.74089824 2.36713939 4.02493482 4.50601646 5 8 C4.625 11.3125 4.625 11.3125 4 14 C3.67 14 3.34 14 3 14 C0.88838269 4.58997722 0.88838269 4.58997722 0 0 Z " fill="#56DBEE" transform="translate(381,730)"/>
<path d="M0 0 C3.73487777 0.4979837 5.81237635 0.87491756 9 3 C9 3.66 9 4.32 9 5 C6.03 4.01 3.06 3.02 0 2 C0 1.34 0 0.68 0 0 Z " fill="#22242B" transform="translate(635,368)"/>
<path d="M0 0 C-0.33 0.99 -0.66 1.98 -1 3 C-3.31 3.33 -5.62 3.66 -8 4 C-7.67 3.01 -7.34 2.02 -7 1 C-4.53721199 -0.231394 -2.7204945 -0.07159196 0 0 Z " fill="#08202A" transform="translate(100,366)"/>
<path d="M0 0 C0.66 0.99 1.32 1.98 2 3 C0.02 5.97 0.02 5.97 -2 9 C-2.66 8.01 -3.32 7.02 -4 6 C-2.68 4.02 -1.36 2.04 0 0 Z " fill="#26C1DA" transform="translate(989,324)"/>
<path d="M0 0 C0.66 0.66 1.32 1.32 2 2 C-0.31 3.65 -2.62 5.3 -5 7 C-5.66 6.34 -6.32 5.68 -7 5 C-4.69 3.35 -2.38 1.7 0 0 Z " fill="#031724" transform="translate(427,911)"/>
<path d="M0 0 C0.66 0.33 1.32 0.66 2 1 C1.01 2.1446875 1.01 2.1446875 0 3.3125 C-2.29850538 5.84277939 -2.29850538 5.84277939 -2 9 C-2.99 8.67 -3.98 8.34 -5 8 C-3.8141763 4.62496331 -2.72426311 2.35277269 0 0 Z " fill="#D7D8DB" transform="translate(1231,831)"/>
<path d="M0 0 C0 0.99 0 1.98 0 3 C-2.31 3.66 -4.62 4.32 -7 5 C-7 4.01 -7 3.02 -7 2 C-2.25 0 -2.25 0 0 0 Z " fill="#161A21" transform="translate(1044,829)"/>
<path d="M0 0 C2.97 0.495 2.97 0.495 6 1 C5.67 2.32 5.34 3.64 5 5 C2.5 3.625 2.5 3.625 0 2 C0 1.34 0 0.68 0 0 Z " fill="#1B1C22" transform="translate(59,619)"/>
<path d="M0 0 C1.21236328 0.01353516 1.21236328 0.01353516 2.44921875 0.02734375 C3.37154297 0.04474609 3.37154297 0.04474609 4.3125 0.0625 C4.3125 0.3925 4.3125 0.7225 4.3125 1.0625 C2.3325 1.0625 0.3525 1.0625 -1.6875 1.0625 C-1.6875 1.7225 -1.6875 2.3825 -1.6875 3.0625 C-3.9975 3.0625 -6.3075 3.0625 -8.6875 3.0625 C-6.88341097 -0.54567807 -3.60175697 -0.05219938 0 0 Z " fill="#0A4E5D" transform="translate(1183.6875,339.9375)"/>
<path d="M0 0 C0.6875 1.625 0.6875 1.625 1 4 C-0.4375 7.25 -0.4375 7.25 -2 10 C-2.33 10 -2.66 10 -3 10 C-2.25 3.375 -2.25 3.375 0 0 Z " fill="#61D6E5" transform="translate(235,236)"/>
<path d="M0 0 C0.66 0.33 1.32 0.66 2 1 C1.67 2.32 1.34 3.64 1 5 C2.65 5 4.3 5 6 5 C6 5.33 6 5.66 6 6 C4.0085944 6.38133299 2.00720923 6.71325582 0 7 C-1 6 -1 6 -1.125 3.5 C-1 1 -1 1 0 0 Z " fill="#090D15" transform="translate(1236,854)"/>
<path d="M0 0 C0.66 0 1.32 0 2 0 C0.52307692 4.67692308 0.52307692 4.67692308 -2.125 6.3125 C-3.053125 6.6528125 -3.053125 6.6528125 -4 7 C-2.79618552 4.50638429 -1.54571278 2.31856917 0 0 Z " fill="#121519" transform="translate(1196,847)"/>
<path d="M0 0 C1.65 0 3.3 0 5 0 C4.67 1.65 4.34 3.3 4 5 C2.68 4.34 1.36 3.68 0 3 C0 2.01 0 1.02 0 0 Z " fill="#111318" transform="translate(1188,832)"/>
<path d="M0 0 C0.66 0.33 1.32 0.66 2 1 C1.45276317 4.37462715 0.9451 6.08235 -1 9 C-1.09765625 2.84765625 -1.09765625 2.84765625 -1 1 C-0.67 0.67 -0.34 0.34 0 0 Z " fill="#5EDDED" transform="translate(282,746)"/>
<path d="M0 0 C0.99 0.99 1.98 1.98 3 3 C2.6875 6.1875 2.6875 6.1875 2 9 C1.34 9 0.68 9 0 9 C0 6.03 0 3.06 0 0 Z " fill="#9B9CA2" transform="translate(844,619)"/>
<path d="M0 0 C2.475 0.495 2.475 0.495 5 1 C4.67 1.99 4.34 2.98 4 4 C2.68 4 1.36 4 0 4 C0 2.68 0 1.36 0 0 Z " fill="#2B2B32" transform="translate(902,619)"/>
<path d="M0 0 C2.475 0.495 2.475 0.495 5 1 C4.67 1.99 4.34 2.98 4 4 C2.68 4 1.36 4 0 4 C0 2.68 0 1.36 0 0 Z " fill="#2C2E31" transform="translate(818,619)"/>
<path d="M0 0 C-0.33 0.99 -0.66 1.98 -1 3 C-3.97 2.67 -6.94 2.34 -10 2 C-6.3558226 -0.4294516 -4.28758728 -0.16179575 0 0 Z " fill="#34383E" transform="translate(602,308)"/>
<path d="M0 0 C1.98 0.495 1.98 0.495 4 1 C4 1.99 4 2.98 4 4 C2.35 4 0.7 4 -1 4 C-0.67 2.68 -0.34 1.36 0 0 Z " fill="#292A30" transform="translate(60,71)"/>
<path d="M0 0 C1.875 0.3125 1.875 0.3125 4 1 C4.66 1.99 5.32 2.98 6 4 C4.68 4 3.36 4 2 4 C1.34 2.68 0.68 1.36 0 0 Z " fill="#03182A" transform="translate(441,969)"/>
<path d="M0 0 C3.24208567 0.35049575 4.61527704 0.56221181 6.8125 3.0625 C7.204375 3.701875 7.59625 4.34125 8 5 C5 5 5 5 2.3125 2.5 C1.549375 1.675 0.78625 0.85 0 0 Z " fill="#E4E5E8" transform="translate(1116,830)"/>
<path d="M0 0 C0.33 0.66 0.66 1.32 1 2 C1.99 2 2.98 2 4 2 C3.67 3.98 3.34 5.96 3 8 C2.01 7.67 1.02 7.34 0 7 C0 4.69 0 2.38 0 0 Z " fill="#01040D" transform="translate(927,617)"/>
<path d="M0 0 C1.98 0.99 1.98 0.99 4 2 C4 3.98 4 5.96 4 8 C0 3.375 0 3.375 0 0 Z " fill="#11121A" transform="translate(949,617)"/>
<path d="M0 0 C-0.33 0.99 -0.66 1.98 -1 3 C-2.65 3.33 -4.3 3.66 -6 4 C-6.33 3.34 -6.66 2.68 -7 2 C-4.35261084 0.5393715 -3.10551666 0 0 0 Z " fill="#041C2B" transform="translate(1328,374)"/>
<path d="M0 0 C0 0.33 0 0.66 0 1 C-1.98 1 -3.96 1 -6 1 C-6 1.66 -6 2.32 -6 3 C-8.31 2.67 -10.62 2.34 -13 2 C-13 1.67 -13 1.34 -13 1 C-8.59085217 -0.10228696 -4.51617599 -0.07654536 0 0 Z " fill="#169BAF" transform="translate(1338,355)"/>
<path d="M0 0 C2.97 0.495 2.97 0.495 6 1 C5.67 1.66 5.34 2.32 5 3 C2.69 3 0.38 3 -2 3 C-1.34 2.01 -0.68 1.02 0 0 Z " fill="#E6E8EB" transform="translate(618,288)"/>
<path d="M0 0 C2.475 0.495 2.475 0.495 5 1 C4.67 1.99 4.34 2.98 4 4 C2.68 4 1.36 4 0 4 C0 2.68 0 1.36 0 0 Z " fill="#2A2B2F" transform="translate(118,71)"/>
<path d="M0 0 C1.98 0.495 1.98 0.495 4 1 C3.67 1.99 3.34 2.98 3 4 C1.68 4 0.36 4 -1 4 C-0.67 2.68 -0.34 1.36 0 0 Z " fill="#2B2D32" transform="translate(72,71)"/>
</svg>
